<svg width="16" height="16" viewBox="0 0 16 16" fill="none" xmlns="http://www.w3.org/2000/svg">
<path fill-rule="evenodd" clip-rule="evenodd" d="M13.0066 1.76302C13.1768 1.71376 13.3572 1.71094 13.529 1.75488C13.7017 1.79906 13.8593 1.88888 13.9854 2.01494C14.1115 2.141 14.2013 2.29864 14.2455 2.47136C14.2894 2.64314 14.2866 2.82353 14.2373 2.99382L10.9577 14.6381C10.9575 14.6388 10.9573 14.6395 10.9571 14.6402C10.9026 14.8377 10.7888 15.0137 10.631 15.1444C10.4727 15.2756 10.2778 15.3548 10.0728 15.3712C9.86785 15.3876 9.66281 15.3404 9.48563 15.2361C9.30973 15.1325 9.16979 14.9776 9.08453 14.7922L6.55485 9.44549L1.20815 6.91581C1.02277 6.83055 0.867869 6.69061 0.764291 6.51472C0.65995 6.33754 0.612765 6.1325 0.629162 5.92753C0.645559 5.72257 0.724742 5.52764 0.855924 5.3693C0.98663 5.21154 1.16262 5.09774 1.36009 5.04328C1.36081 5.04308 1.36153 5.04288 1.36225 5.04268L13.0066 1.76302ZM13.1441 2.24373L13.279 2.72265C13.2797 2.72313 13.2804 2.72348 13.2812 2.72368C13.2823 2.72396 13.2834 2.72394 13.2845 2.72363L13.1441 2.24373ZM13.2736 2.7267L1.626 6.00729L1.63295 6.01051L6.98143 8.54104C7.19197 8.63917 7.36117 8.80838 7.4593 9.01891L9.98983 14.3674L9.99307 14.3744L9.99408 14.3707L13.2736 2.7267Z" fill="#696F8C"/>
<path fill-rule="evenodd" clip-rule="evenodd" d="M10.1102 5.89022C10.3055 6.08548 10.3055 6.40207 10.1102 6.59733L7.28519 9.42233C7.08993 9.61759 6.77335 9.61759 6.57809 9.42233C6.38283 9.22707 6.38283 8.91048 6.57809 8.71522L9.40309 5.89022C9.59835 5.69496 9.91493 5.69496 10.1102 5.89022Z" fill="#696F8C"/>
</svg>
