<svg width="16" height="16" viewBox="0 0 16 16" fill="none" xmlns="http://www.w3.org/2000/svg">
<path d="M15.3337 12.6667C15.3337 13.0203 15.1932 13.3594 14.9431 13.6095C14.6931 13.8595 14.3539 14 14.0003 14H2.00033C1.6467 14 1.30756 13.8595 1.05752 13.6095C0.807468 13.3594 0.666992 13.0203 0.666992 12.6667V5.33333C0.666992 4.97971 0.807468 4.64057 1.05752 4.39052C1.30756 4.14048 1.6467 4 2.00033 4H4.66699L6.00033 2H10.0003L11.3337 4H14.0003C14.3539 4 14.6931 4.14048 14.9431 4.39052C15.1932 4.64057 15.3337 4.97971 15.3337 5.33333V12.6667Z" stroke="black" stroke-linecap="round" stroke-linejoin="round"/>
<path d="M7.99967 11.3333C9.47243 11.3333 10.6663 10.1394 10.6663 8.66667C10.6663 7.19391 9.47243 6 7.99967 6C6.52692 6 5.33301 7.19391 5.33301 8.66667C5.33301 10.1394 6.52692 11.3333 7.99967 11.3333Z" stroke="black" stroke-linecap="round" stroke-linejoin="round"/>
</svg>
