<svg width="24" height="25" viewBox="0 0 24 25" fill="none" xmlns="http://www.w3.org/2000/svg">
<rect y="1" width="24" height="24" rx="5" fill="#F9F9FB"/>
<path d="M11.6667 12.6666C11.6667 13.0348 11.9651 13.3333 12.3333 13.3333C12.7015 13.3333 13 13.0348 13 12.6666C13 12.2984 12.7015 11.9999 12.3333 11.9999C11.9651 11.9999 11.6667 12.2984 11.6667 12.6666Z" stroke="#696F8C" stroke-width="2" stroke-linecap="round" stroke-linejoin="round"/>
<path d="M11.6667 17.3333C11.6667 17.7014 11.9651 17.9999 12.3333 17.9999C12.7015 17.9999 13 17.7014 13 17.3333C13 16.9651 12.7015 16.6666 12.3333 16.6666C11.9651 16.6666 11.6667 16.9651 11.6667 17.3333Z" stroke="#696F8C" stroke-width="2" stroke-linecap="round" stroke-linejoin="round"/>
<path d="M11.6667 7.99992C11.6667 8.36811 11.9651 8.66659 12.3333 8.66659C12.7015 8.66659 13 8.36811 13 7.99992C13 7.63173 12.7015 7.33325 12.3333 7.33325C11.9651 7.33325 11.6667 7.63173 11.6667 7.99992Z" stroke="#696F8C" stroke-width="2" stroke-linecap="round" stroke-linejoin="round"/>
<circle cx="21.5" cy="2.5" r="2.5" fill="#A92525"/>
</svg>
