<svg width="16" height="14" viewBox="0 0 16 14" fill="none" xmlns="http://www.w3.org/2000/svg">
<path d="M14.6889 1.23375C14.3 0.842615 13.8383 0.532339 13.3301 0.320648C12.8218 0.108958 12.2771 0 11.727 0C11.1769 0 10.6321 0.108958 10.1239 0.320648C9.61568 0.532339 9.15393 0.842615 8.76503 1.23375L7.95791 2.04511L7.1508 1.23375C6.36524 0.444055 5.29979 0.000409326 4.18884 0.000409334C3.07789 0.000409343 2.01244 0.444055 1.22688 1.23375C0.441323 2.02344 8.27722e-09 3.0945 0 4.21129C-8.27722e-09 5.32809 0.441323 6.39915 1.22688 7.18884L2.034 8.0002L7.95791 13.9553L13.8818 8.0002L14.6889 7.18884C15.078 6.79789 15.3867 6.33371 15.5973 5.82281C15.8078 5.31191 15.9162 4.76431 15.9162 4.21129C15.9162 3.65828 15.8078 3.11068 15.5973 2.59978C15.3867 2.08888 15.078 1.6247 14.6889 1.23375Z" fill="#D49292"/>
</svg>
