<svg width="24" height="24" viewBox="0 0 24 24" fill="none" xmlns="http://www.w3.org/2000/svg">
<rect width="24" height="24" rx="5" fill="#DCDDE5"/>
<path d="M12.3333 12.3333C12.7015 12.3333 13 12.0349 13 11.6667C13 11.2985 12.7015 11 12.3333 11C11.9651 11 11.6667 11.2985 11.6667 11.6667C11.6667 12.0349 11.9651 12.3333 12.3333 12.3333Z" stroke="#696F8C" stroke-width="2" stroke-linecap="round" stroke-linejoin="round"/>
<path d="M17 12.3333C17.3682 12.3333 17.6667 12.0349 17.6667 11.6667C17.6667 11.2985 17.3682 11 17 11C16.6318 11 16.3333 11.2985 16.3333 11.6667C16.3333 12.0349 16.6318 12.3333 17 12.3333Z" stroke="#696F8C" stroke-width="2" stroke-linecap="round" stroke-linejoin="round"/>
<path d="M7.66667 12.3333C8.03486 12.3333 8.33333 12.0349 8.33333 11.6667C8.33333 11.2985 8.03486 11 7.66667 11C7.29848 11 7 11.2985 7 11.6667C7 12.0349 7.29848 12.3333 7.66667 12.3333Z" stroke="#696F8C" stroke-width="2" stroke-linecap="round" stroke-linejoin="round"/>
</svg>
