<svg width="24" height="25" viewBox="0 0 24 25" fill="none" xmlns="http://www.w3.org/2000/svg">
<rect y="1" width="24" height="24" rx="5" fill="#DCDDE5"/>
<path d="M12.3333 13.3333C12.7015 13.3333 13 13.0349 13 12.6667C13 12.2985 12.7015 12 12.3333 12C11.9651 12 11.6667 12.2985 11.6667 12.6667C11.6667 13.0349 11.9651 13.3333 12.3333 13.3333Z" stroke="#696F8C" stroke-width="2" stroke-linecap="round" stroke-linejoin="round"/>
<path d="M17 13.3333C17.3682 13.3333 17.6667 13.0349 17.6667 12.6667C17.6667 12.2985 17.3682 12 17 12C16.6318 12 16.3333 12.2985 16.3333 12.6667C16.3333 13.0349 16.6318 13.3333 17 13.3333Z" stroke="#696F8C" stroke-width="2" stroke-linecap="round" stroke-linejoin="round"/>
<path d="M7.66667 13.3333C8.03486 13.3333 8.33333 13.0349 8.33333 12.6667C8.33333 12.2985 8.03486 12 7.66667 12C7.29848 12 7 12.2985 7 12.6667C7 13.0349 7.29848 13.3333 7.66667 13.3333Z" stroke="#696F8C" stroke-width="2" stroke-linecap="round" stroke-linejoin="round"/>
<circle cx="21.5" cy="2.5" r="2.5" fill="#3B1AD9"/>
</svg>
