<svg width="13" height="4" viewBox="0 0 13 4" fill="none" xmlns="http://www.w3.org/2000/svg">
<path d="M6.33333 2.33333C6.70152 2.33333 7 2.03486 7 1.66667C7 1.29848 6.70152 1 6.33333 1C5.96514 1 5.66667 1.29848 5.66667 1.66667C5.66667 2.03486 5.96514 2.33333 6.33333 2.33333Z" stroke="#696F8C" stroke-width="2" stroke-linecap="round" stroke-linejoin="round"/>
<path d="M11 2.33333C11.3682 2.33333 11.6667 2.03486 11.6667 1.66667C11.6667 1.29848 11.3682 1 11 1C10.6318 1 10.3333 1.29848 10.3333 1.66667C10.3333 2.03486 10.6318 2.33333 11 2.33333Z" stroke="#696F8C" stroke-width="2" stroke-linecap="round" stroke-linejoin="round"/>
<path d="M1.66667 2.33333C2.03486 2.33333 2.33333 2.03486 2.33333 1.66667C2.33333 1.29848 2.03486 1 1.66667 1C1.29848 1 1 1.29848 1 1.66667C1 2.03486 1.29848 2.33333 1.66667 2.33333Z" stroke="#696F8C" stroke-width="2" stroke-linecap="round" stroke-linejoin="round"/>
</svg>
