<svg width="14" height="14" viewBox="0 0 14 14" fill="none" xmlns="http://www.w3.org/2000/svg">
<rect width="14" height="14" rx="5" fill="#DCDDE5"/>
<path d="M7 7C7.27614 7 7.5 6.77614 7.5 6.5C7.5 6.22386 7.27614 6 7 6C6.72386 6 6.5 6.22386 6.5 6.5C6.5 6.77614 6.72386 7 7 7Z" stroke="#696F8C" stroke-width="2" stroke-linecap="round" stroke-linejoin="round"/>
<path d="M10.5 7C10.7761 7 11 6.77614 11 6.5C11 6.22386 10.7761 6 10.5 6C10.2239 6 10 6.22386 10 6.5C10 6.77614 10.2239 7 10.5 7Z" stroke="#696F8C" stroke-width="2" stroke-linecap="round" stroke-linejoin="round"/>
<path d="M3.5 7C3.77614 7 4 6.77614 4 6.5C4 6.22386 3.77614 6 3.5 6C3.22386 6 3 6.22386 3 6.5C3 6.77614 3.22386 7 3.5 7Z" stroke="#696F8C" stroke-width="2" stroke-linecap="round" stroke-linejoin="round"/>
</svg>
