<svg width="24" height="24" viewBox="0 0 24 24" fill="none" xmlns="http://www.w3.org/2000/svg">
<path fill-rule="evenodd" clip-rule="evenodd" d="M12 6.75C12.4142 6.75 12.75 7.08579 12.75 7.5V12C12.75 12.4142 12.4142 12.75 12 12.75C11.5858 12.75 11.25 12.4142 11.25 12V7.5C11.25 7.08579 11.5858 6.75 12 6.75Z" fill="#696F8C"/>
<path fill-rule="evenodd" clip-rule="evenodd" d="M11.3502 11.6252C11.5572 11.2664 12.0159 11.1434 12.3747 11.3504L16.2747 13.6004C16.6335 13.8074 16.7565 14.266 16.5495 14.6248C16.3425 14.9836 15.8839 15.1066 15.5251 14.8996L11.6251 12.6496C11.2663 12.4427 11.1433 11.984 11.3502 11.6252Z" fill="#696F8C"/>
<path fill-rule="evenodd" clip-rule="evenodd" d="M21.0188 4.84692C21.433 4.84692 21.7688 5.18271 21.7688 5.59692V9.34692C21.7688 9.76114 21.433 10.0969 21.0188 10.0969H17.2688C16.8546 10.0969 16.5188 9.76114 16.5188 9.34692C16.5188 8.93271 16.8546 8.59692 17.2688 8.59692H20.2688V5.59692C20.2688 5.18271 20.6046 4.84692 21.0188 4.84692Z" fill="#696F8C"/>
<path fill-rule="evenodd" clip-rule="evenodd" d="M13.4605 4.64456C12.0055 4.35468 10.4972 4.50284 9.12641 5.07032C7.7556 5.6378 6.5839 6.59909 5.75952 7.83259C4.93514 9.06609 4.49512 10.5164 4.49512 12C4.49512 13.4836 4.93514 14.9339 5.75952 16.1674C6.5839 17.4009 7.7556 18.3622 9.12641 18.9297C10.4972 19.4972 12.0055 19.6453 13.4605 19.3554C14.9156 19.0656 16.2519 18.3506 17.3006 17.3011C17.5934 17.0081 18.0682 17.0079 18.3612 17.3007C18.6543 17.5935 18.6544 18.0684 18.3617 18.3614C17.1033 19.6208 15.4997 20.4787 13.7536 20.8265C12.0076 21.1744 10.1976 20.9966 8.55266 20.3156C6.9077 19.6346 5.50166 18.4811 4.5124 17.0009C3.52314 15.5207 2.99512 13.7803 2.99512 12C2.99512 10.2197 3.52314 8.47931 4.5124 6.99911C5.50166 5.51891 6.9077 4.36536 8.55266 3.68439C10.1976 3.00341 12.0076 2.82561 13.7536 3.17347C15.4995 3.5213 17.1029 4.37905 18.3613 5.63823C18.3614 5.63837 18.3611 5.6381 18.3613 5.63823L21.5482 8.81577C21.8415 9.10823 21.8422 9.5831 21.5497 9.87643C21.2573 10.1698 20.7824 10.1705 20.4891 9.87799L17.3006 6.69887C16.2519 5.64936 14.9156 4.93445 13.4605 4.64456Z" fill="#696F8C"/>
</svg>
