<svg width="32" height="32" viewBox="0 0 32 32" fill="none" xmlns="http://www.w3.org/2000/svg">
<path d="M0 5C0 2.23858 2.23858 0 5 0H27C29.7614 0 32 2.23858 32 5V27C32 29.7614 29.7614 32 27 32H5C2.23858 32 0 29.7614 0 27V5Z" fill="#006637"/>
<path fill-rule="evenodd" clip-rule="evenodd" d="M6.66675 10.6666C6.66675 9.93021 7.2637 9.33325 8.00008 9.33325H24.0001C24.7365 9.33325 25.3334 9.93021 25.3334 10.6666V21.3333C25.3334 22.0696 24.7365 22.6666 24.0001 22.6666H8.00008C7.2637 22.6666 6.66675 22.0696 6.66675 21.3333V10.6666ZM24.0001 10.6666H8.00008V21.3333H24.0001V10.6666Z" fill="white"/>
<path fill-rule="evenodd" clip-rule="evenodd" d="M18.6667 19.3334C18.6667 18.9652 18.9652 18.6667 19.3334 18.6667H22.0001C22.3683 18.6667 22.6667 18.9652 22.6667 19.3334C22.6667 19.7016 22.3683 20.0001 22.0001 20.0001H19.3334C18.9652 20.0001 18.6667 19.7016 18.6667 19.3334Z" fill="white"/>
<path fill-rule="evenodd" clip-rule="evenodd" d="M14.6667 19.3334C14.6667 18.9652 14.9652 18.6667 15.3334 18.6667H16.6667C17.0349 18.6667 17.3334 18.9652 17.3334 19.3334C17.3334 19.7016 17.0349 20.0001 16.6667 20.0001H15.3334C14.9652 20.0001 14.6667 19.7016 14.6667 19.3334Z" fill="white"/>
<path fill-rule="evenodd" clip-rule="evenodd" d="M6.66675 13.4084C6.66675 13.0402 6.96522 12.7417 7.33341 12.7417H24.6667C25.0349 12.7417 25.3334 13.0402 25.3334 13.4084C25.3334 13.7766 25.0349 14.075 24.6667 14.075H7.33341C6.96522 14.075 6.66675 13.7766 6.66675 13.4084Z" fill="white"/>
</svg>
