<svg width="24" height="24" viewBox="0 0 24 24" fill="none" xmlns="http://www.w3.org/2000/svg">
<path d="M20.4932 17.5861C20.1908 18.2848 19.8328 18.928 19.418 19.5193C18.8526 20.3255 18.3896 20.8835 18.0328 21.1934C17.4798 21.702 16.8872 21.9625 16.2527 21.9773C15.7971 21.9773 15.2478 21.8477 14.6083 21.5847C13.9667 21.323 13.3771 21.1934 12.838 21.1934C12.2725 21.1934 11.6662 21.323 11.0175 21.5847C10.3679 21.8477 9.84461 21.9847 9.4445 21.9983C8.836 22.0242 8.22948 21.7563 7.62407 21.1934C7.23766 20.8563 6.75435 20.2786 6.17536 19.4601C5.55414 18.586 5.04342 17.5725 4.64331 16.417C4.21481 15.1689 4 13.9603 4 12.7902C4 11.4498 4.28962 10.2938 4.86972 9.32509C5.32563 8.54696 5.93215 7.93316 6.69126 7.48255C7.45037 7.03195 8.27059 6.80233 9.15389 6.78763C9.63721 6.78763 10.271 6.93714 11.0586 7.23096C11.844 7.52576 12.3483 7.67526 12.5695 7.67526C12.7348 7.67526 13.295 7.50045 14.2447 7.15195C15.1428 6.82874 15.9008 6.69492 16.5218 6.74764C18.2044 6.88343 19.4686 7.54675 20.3093 8.74177C18.8044 9.6536 18.06 10.9307 18.0748 12.5691C18.0884 13.8452 18.5513 14.9071 19.4612 15.7503C19.8735 16.1417 20.334 16.4441 20.8463 16.6589C20.7352 16.9812 20.6179 17.2898 20.4932 17.5861ZM16.6341 2.40011C16.6341 3.40034 16.2687 4.33425 15.5403 5.19867C14.6614 6.22629 13.5982 6.8201 12.4453 6.7264C12.4306 6.60641 12.4221 6.48011 12.4221 6.3474C12.4221 5.38718 12.8401 4.35956 13.5824 3.51934C13.953 3.09392 14.4243 2.74019 14.9959 2.45801C15.5663 2.18005 16.1057 2.02632 16.6131 2C16.628 2.13371 16.6341 2.26744 16.6341 2.4001V2.40011Z" fill="black"/>
</svg>
