<svg width="24" height="24" viewBox="0 0 24 24" fill="none" xmlns="http://www.w3.org/2000/svg">
<g clip-path="url(#clip0_89_1724)">
<path d="M20.5001 12.2067C20.5001 11.5949 20.4509 10.9798 20.3459 10.3779H11.9255V13.8437H16.7475C16.5474 14.9614 15.9045 15.9502 14.963 16.5786V18.8273H17.8398C19.5291 17.2598 20.5001 14.9449 20.5001 12.2067Z" fill="#4285F4"/>
<path d="M11.9254 21C14.3331 21 16.3636 20.203 17.843 18.8273L14.9662 16.5786C14.1658 17.1275 13.1326 17.4384 11.9287 17.4384C9.59977 17.4384 7.62507 15.8543 6.91654 13.7246H3.94794V16.0428C5.4634 19.0819 8.55009 21 11.9254 21Z" fill="#34A853"/>
<path d="M6.91336 13.7245C6.53942 12.6068 6.53942 11.3964 6.91336 10.2787V7.96045H3.94804C2.68187 10.5035 2.68187 13.4997 3.94804 16.0428L6.91336 13.7245Z" fill="#FBBC04"/>
<path d="M11.9254 6.56163C13.1982 6.54179 14.4283 7.02461 15.35 7.91089L17.8987 5.34135C16.2849 3.81352 14.1429 2.97354 11.9254 3C8.55009 3 5.4634 4.91806 3.94794 7.9605L6.91326 10.2787C7.61851 8.14569 9.59649 6.56163 11.9254 6.56163Z" fill="#EA4335"/>
</g>
<defs>
<clipPath id="clip0_89_1724">
<rect width="17.5" height="18" fill="white" transform="translate(3 3)"/>
</clipPath>
</defs>
</svg>
