<svg width="24" height="24" viewBox="0 0 24 24" fill="none" xmlns="http://www.w3.org/2000/svg">
<path d="M21 18.5C21 19.9 19.9 21 18.5 21H5.5C4.1 21 3 19.9 3 18.5V5.5C3 4.1 4.1 3 5.5 3H18.5C19.9 3 21 4.1 21 5.5V18.5Z" fill="#FF9800"/>
<path d="M13.45 15.2C14.2 15.05 14.9 14.75 15.5 14.35C16 14.05 16.15 13.4 15.85 12.9C15.55 12.4 14.9 12.25 14.4 12.55C12.95 13.45 11.05 13.45 9.59999 12.55C9.09999 12.25 8.44999 12.4 8.14999 12.9C7.84999 13.4 7.99999 14.05 8.49999 14.35C9.14999 14.75 9.84999 15.05 10.55 15.2L8.54999 17.2C8.14999 17.6 8.14999 18.25 8.54999 18.7C8.74999 18.9 8.99999 19 9.29999 19C9.54999 19 9.84999 18.9 10.05 18.7L12 16.75L13.95 18.7C14.35 19.1 15 19.1 15.45 18.7C15.85 18.3 15.85 17.65 15.45 17.2L13.45 15.2ZM12 5C10.05 5 8.49999 6.55 8.49999 8.5C8.49999 10.45 10.05 12 12 12C13.95 12 15.5 10.45 15.5 8.5C15.5 6.55 13.95 5 12 5ZM12 10C11.15 10 10.5 9.35 10.5 8.5C10.5 7.65 11.15 7 12 7C12.85 7 13.5 7.65 13.5 8.5C13.5 9.35 12.85 10 12 10Z" fill="white"/>
</svg>
