<svg width="16" height="16" viewBox="0 0 16 16" fill="none" xmlns="http://www.w3.org/2000/svg">
<path fill-rule="evenodd" clip-rule="evenodd" d="M12.318 7.5237C12.5569 7.3852 12.8629 7.46658 13.0014 7.70548L14.4326 10.1742C14.5711 10.4131 14.4897 10.7191 14.2508 10.8576C14.0119 10.9961 13.706 10.9147 13.5675 10.6758L12.1362 8.20704C11.9977 7.96814 12.0791 7.6622 12.318 7.5237Z" fill="#696F8C"/>
<path fill-rule="evenodd" clip-rule="evenodd" d="M9.55078 8.83884C9.82274 8.79093 10.082 8.97255 10.13 9.24451L10.5737 11.7633C10.6216 12.0352 10.44 12.2945 10.168 12.3424C9.89608 12.3903 9.63678 12.2087 9.58887 11.9368L9.14512 9.41801C9.09721 9.14606 9.27883 8.88676 9.55078 8.83884Z" fill="#696F8C"/>
<path fill-rule="evenodd" clip-rule="evenodd" d="M6.44285 8.83258C6.71483 8.88038 6.89656 9.13961 6.84876 9.41158L6.40501 11.9366C6.35721 12.2086 6.09799 12.3903 5.82601 12.3425C5.55404 12.2947 5.37231 12.0355 5.42011 11.7635L5.86386 9.23849C5.91165 8.96652 6.17088 8.78478 6.44285 8.83258Z" fill="#696F8C"/>
<path fill-rule="evenodd" clip-rule="evenodd" d="M3.67482 7.52315C3.91402 7.66113 3.99607 7.96689 3.8581 8.20609L2.42685 10.6873C2.28887 10.9265 1.98311 11.0086 1.74391 10.8706C1.50471 10.7326 1.42265 10.4269 1.56063 10.1877L2.99188 7.70643C3.12985 7.46723 3.43562 7.38517 3.67482 7.52315Z" fill="#696F8C"/>
<path fill-rule="evenodd" clip-rule="evenodd" d="M1.68585 6.16732C1.90067 5.99381 2.21548 6.0273 2.38899 6.24212C3.38375 7.47374 5.1796 9.00004 8.00002 9.00004C10.8204 9.00004 12.6163 7.47374 13.611 6.24212C13.7846 6.0273 14.0994 5.99381 14.3142 6.16732C14.529 6.34083 14.5625 6.65564 14.389 6.87046C13.2838 8.23885 11.2296 10 8.00002 10C4.77043 10 2.71628 8.23885 1.61105 6.87046C1.43754 6.65564 1.47103 6.34083 1.68585 6.16732Z" fill="#696F8C"/>
</svg>
