<svg width="24" height="24" viewBox="0 0 24 24" fill="none" xmlns="http://www.w3.org/2000/svg">
<path d="M20 3H4C3.4475 3 3 3.4475 3 4V20C3 20.5525 3.4475 21 4 21H20C20.5525 21 21 20.5525 21 20V4C21 3.4475 20.5525 3 20 3Z" fill="url(#paint0_linear_89_1741)"/>
<path opacity="0.05" d="M18.4685 8.5205C18.4915 8.445 18.5025 8.375 18.4995 8.3125C18.492 8.1315 18.3675 8 18.0745 8H15.9975C15.667 8 15.5145 8.2 15.4255 8.4005C15.4255 8.4005 14.5655 10.2425 14.3645 10.625C14.0595 10.9455 13.862 11.3055 13.697 11.3055C13.6085 11.3055 13.5 11.393 13.5 11.0995V8.507C13.5 8.16 13.4135 8 13.134 8H9.8095C9.606 8 9.5 8.16 9.5 8.3205C9.5 8.654 9.949 9.734 10 10.6685V11.116C10 11.434 10.0505 11.736 9.9315 11.736C9.7865 11.736 9.2795 10.615 8.851 8.534C8.724 8.147 8.597 8 8.2665 8H5.945C5.5635 8 5.5 8.187 5.5 8.387C5.5 9.193 5.922 11.533 7.5595 13.774C8.747 15.399 10.6895 16.5 12.0745 16.5C12.693 16.5 13.4995 16.49 13.4995 15.56C13.4995 14.63 13.4895 14.1425 13.5815 14.1425C13.7005 14.1425 13.7565 14.197 14.5065 15.072C15.372 16.0805 15.5835 16.5 16.0795 16.5H18.0145C18.3185 16.5 18.493 16.3725 18.5 16.125C18.5 15.4875 18.313 15.1185 17.375 13.7435C17.0675 13.372 16.5 12.7455 16.5 12.4935C16.5 12.21 18.0945 10.0555 18.4685 8.5205Z" fill="black"/>
<path opacity="0.07" d="M18.2185 8.7705C18.2415 8.695 18.2525 8.625 18.2495 8.5625C18.242 8.3815 18.1175 8.25 17.8245 8.25H16.1315C15.801 8.25 15.6485 8.45 15.5595 8.6505C15.5595 8.6505 14.7215 10.4115 14.1505 11.1565C13.8455 11.477 13.6695 11.653 13.5045 11.653C13.416 11.653 13.25 11.6435 13.25 11.35V8.7575C13.25 8.4105 13.1635 8.2505 12.884 8.2505H10.0595C9.856 8.2505 9.75 8.4105 9.75 8.571C9.75 8.9045 10.199 9.4845 10.25 10.419V11.5485C10.25 11.9275 10.237 12.1185 10.095 12.1185C9.8 12.1185 9.1085 10.808 8.601 8.7845C8.474 8.3975 8.347 8.2505 8.0165 8.2505H6.195C5.8135 8.2505 5.75 8.4375 5.75 8.6375C5.75 9.221 6.111 11.365 7.7485 13.606C8.936 15.231 10.6895 16.2505 12.0745 16.2505C12.803 16.2505 13.2495 16.14 13.2495 15.507V14.416C13.25 14.0155 13.2905 13.8215 13.47 13.8215C13.625 13.8215 13.847 13.911 14.597 14.786C15.462 15.795 15.6465 16.25 16.1425 16.25H17.7645C18.0685 16.25 18.243 16.1225 18.25 15.875C18.25 15.382 17.9065 14.757 17.125 13.7465C16.8175 13.375 16.25 12.783 16.25 12.4965C16.25 12.21 17.6725 10.53 18.2185 8.7705Z" fill="black"/>
<path d="M17.9685 9.0205C17.9915 8.945 18.0025 8.875 17.9995 8.8125C17.992 8.6315 17.8675 8.5 17.5745 8.5H16.2655C15.935 8.5 15.7825 8.7 15.6935 8.9005C15.6935 8.9005 14.8775 10.58 13.937 11.6875C13.632 12.008 13.477 12 13.312 12C13.2235 12 13 11.893 13 11.5995V9.007C13 8.66 12.9135 8.5 12.634 8.5H10.3095C10.106 8.5 10 8.66 10 8.8205C10 9.154 10.449 9.234 10.5 10.1685V11.98C10.5 12.42 10.4235 12.5 10.2585 12.5C9.8135 12.5 8.9375 11 8.351 9.034C8.224 8.647 8.097 8.5 7.7665 8.5H6.445C6.0635 8.5 6 8.687 6 8.887C6 9.2475 6.3 11.1965 7.9375 13.4375C9.125 15.0625 10.6895 16 12.0745 16C12.9135 16 12.9995 15.7865 12.9995 15.453V13.967C13 13.5665 13.0915 13.5 13.3585 13.5C13.549 13.5 13.9375 13.625 14.6875 14.5C15.5525 15.509 15.7095 16 16.2055 16H17.5145C17.8185 16 17.993 15.8725 18 15.625C18.0015 15.562 17.9925 15.4915 17.972 15.413C17.875 15.125 17.43 14.421 16.875 13.75C16.5675 13.3785 16.264 13.0105 16.1245 12.8105C16.031 12.68 15.9955 12.588 16 12.5C16.0045 12.4075 16.0525 12.3195 16.1245 12.1965C16.1115 12.1965 17.8035 9.821 17.9685 9.0205Z" fill="white"/>
<defs>
<linearGradient id="paint0_linear_89_1741" x1="9.094" y1="3.0005" x2="14.723" y2="20.4325" gradientUnits="userSpaceOnUse">
<stop stop-color="#33BEF0"/>
<stop offset="1" stop-color="#0A85D9"/>
</linearGradient>
</defs>
</svg>
