<svg width="24" height="24" viewBox="0 0 24 24" fill="none" xmlns="http://www.w3.org/2000/svg">
<rect width="24" height="24" rx="3" fill="#CCE0D7"/>
<path fill-rule="evenodd" clip-rule="evenodd" d="M12 15.5C12.2761 15.5 12.5 15.7239 12.5 16V17.5C12.5 17.7761 12.2761 18 12 18C11.7239 18 11.5 17.7761 11.5 17.5V16C11.5 15.7239 11.7239 15.5 12 15.5Z" fill="#3D4151"/>
<path d="M9.75 13.5C10.1642 13.5 10.5 13.1642 10.5 12.75C10.5 12.3358 10.1642 12 9.75 12C9.33579 12 9 12.3358 9 12.75C9 13.1642 9.33579 13.5 9.75 13.5Z" fill="#3D4151"/>
<path d="M14.25 13.5C14.6642 13.5 15 13.1642 15 12.75C15 12.3358 14.6642 12 14.25 12C13.8358 12 13.5 12.3358 13.5 12.75C13.5 13.1642 13.8358 13.5 14.25 13.5Z" fill="#3D4151"/>
<path fill-rule="evenodd" clip-rule="evenodd" d="M10.6464 14.6464C10.8417 14.4512 11.1583 14.4512 11.3536 14.6464L12 15.2929L12.6464 14.6464C12.8417 14.4512 13.1583 14.4512 13.3536 14.6464C13.5488 14.8417 13.5488 15.1583 13.3536 15.3536L12.3536 16.3536C12.1583 16.5488 11.8417 16.5488 11.6464 16.3536L10.6464 15.3536C10.4512 15.1583 10.4512 14.8417 10.6464 14.6464Z" fill="#3D4151"/>
<path fill-rule="evenodd" clip-rule="evenodd" d="M16.8661 5.64617C16.9974 5.61323 17.134 5.60727 17.2676 5.62866C17.4015 5.65009 17.5296 5.69852 17.6442 5.77101C17.7588 5.8435 17.8574 5.93853 17.9341 6.05033C18.0109 6.16213 18.064 6.28836 18.0904 6.42135L18.0915 6.42671L19.1168 11.9037C19.3036 12.9249 17.9952 13.5287 17.3448 12.7032L13.1068 7.30886C13.0021 7.17552 12.972 6.99817 13.027 6.83777C13.0821 6.67737 13.2146 6.55578 13.3791 6.5148L16.8654 5.64635C16.8657 5.64629 16.8659 5.64623 16.8661 5.64617ZM14.3703 7.29844L18.1303 12.0843C18.1303 12.0843 18.1302 12.0842 18.1303 12.0843C18.1305 12.0847 18.1309 12.0852 18.1312 12.0855C18.1314 12.0854 18.1316 12.0853 18.1318 12.0852C18.1323 12.085 18.1328 12.0847 18.1333 12.0845C18.1333 12.0844 18.1333 12.0846 18.1333 12.0845C18.1333 12.0843 18.1332 12.0839 18.1332 12.0837L17.1095 6.6161L17.1084 6.61639L14.3703 7.29844Z" fill="#3D4151"/>
<path fill-rule="evenodd" clip-rule="evenodd" d="M7.13377 5.64617C7.134 5.64623 7.13423 5.64629 7.13447 5.64635L10.6208 6.5148C10.7853 6.55578 10.9178 6.67737 10.9729 6.83777C11.0279 6.99817 10.9978 7.17552 10.8931 7.30886L6.65514 12.7032C6.00468 13.5287 4.69627 12.9249 4.88306 11.9037L4.88343 11.9017L5.90944 6.42134C5.93584 6.28836 5.98904 6.16213 6.06575 6.05033C6.14246 5.93853 6.2411 5.8435 6.35568 5.77101C6.47026 5.69852 6.59838 5.65009 6.73226 5.62866C6.86591 5.60727 7.0025 5.61323 7.13377 5.64617ZM6.89035 6.6161L5.86673 12.0837C5.8667 12.0839 5.86666 12.0841 5.86663 12.0842C5.86662 12.0843 5.86665 12.0842 5.86663 12.0842C5.86711 12.0845 5.86757 12.085 5.8681 12.0852C5.8683 12.0853 5.86849 12.0854 5.86869 12.0855C5.86896 12.0852 5.86924 12.0848 5.86953 12.0844C5.86957 12.0844 5.86949 12.0845 5.86953 12.0844L9.62955 7.29844L6.89035 6.6161Z" fill="#3D4151"/>
<path fill-rule="evenodd" clip-rule="evenodd" d="M10 7C10 6.72386 10.2239 6.5 10.5 6.5H13.5C13.7761 6.5 14 6.72386 14 7C14 7.27614 13.7761 7.5 13.5 7.5H10.5C10.2239 7.5 10 7.27614 10 7Z" fill="#3D4151"/>
<path fill-rule="evenodd" clip-rule="evenodd" d="M7 10.9563C7.27614 10.9563 7.5 11.1802 7.5 11.4563V15.5C7.5 15.8979 7.65804 16.2794 7.93934 16.5607C8.22064 16.842 8.60218 17 9 17H15C15.3978 17 15.7794 16.842 16.0607 16.5607C16.342 16.2794 16.5 15.8979 16.5 15.5V11.4563C16.5 11.1802 16.7239 10.9563 17 10.9563C17.2761 10.9563 17.5 11.1802 17.5 11.4563V15.5C17.5 16.1631 17.2366 16.799 16.7678 17.2678C16.2989 17.7367 15.663 18 15 18H9C8.33696 18 7.70107 17.7367 7.23223 17.2678C6.76339 16.799 6.5 16.1631 6.5 15.5V11.4563C6.5 11.1802 6.72386 10.9563 7 10.9563Z" fill="#3D4151"/>
</svg>
