<svg width="24" height="24" viewBox="0 0 24 24" fill="none" xmlns="http://www.w3.org/2000/svg">
<rect width="24" height="24" rx="3" fill="#CCE0D7"/>
<path fill-rule="evenodd" clip-rule="evenodd" d="M5.5 9C5.5 8.44772 5.94772 8 6.5 8H17.5C18.0523 8 18.5 8.44772 18.5 9V17C18.5 17.5523 18.0523 18 17.5 18H6.5C5.94772 18 5.5 17.5523 5.5 17V9ZM17.5 9H6.5V17H17.5V9Z" fill="#3D4151"/>
<path fill-rule="evenodd" clip-rule="evenodd" d="M9.43934 6.43934C9.72064 6.15804 10.1022 6 10.5 6H13.5C13.8978 6 14.2794 6.15804 14.5607 6.43934C14.842 6.72064 15 7.10217 15 7.5V8.5C15 8.77614 14.7761 9 14.5 9C14.2239 9 14 8.77614 14 8.5V7.5C14 7.36739 13.9473 7.24021 13.8536 7.14645C13.7598 7.05268 13.6326 7 13.5 7H10.5C10.3674 7 10.2402 7.05268 10.1464 7.14645C10.0527 7.24021 10 7.36739 10 7.5V8.5C10 8.77614 9.77614 9 9.5 9C9.22386 9 9 8.77614 9 8.5V7.5C9 7.10217 9.15804 6.72064 9.43934 6.43934Z" fill="#3D4151"/>
<path fill-rule="evenodd" clip-rule="evenodd" d="M18.4329 11.6434C18.5712 11.8825 18.4894 12.1883 18.2504 12.3266C16.3508 13.4252 14.1948 14.0025 12.0004 14C9.8052 14.0056 7.6479 13.4279 5.74915 12.3262C5.5103 12.1876 5.42902 11.8817 5.56761 11.6428C5.70619 11.404 6.01217 11.3227 6.25101 11.4613C7.99682 12.4742 9.98039 13.0053 11.9988 13L12.0007 13C14.0192 13.0024 16.0024 12.4715 17.7498 11.4609C17.9888 11.3227 18.2947 11.4044 18.4329 11.6434Z" fill="#3D4151"/>
<path fill-rule="evenodd" clip-rule="evenodd" d="M10.75 11.5C10.75 11.2239 10.9739 11 11.25 11H12.75C13.0261 11 13.25 11.2239 13.25 11.5C13.25 11.7761 13.0261 12 12.75 12H11.25C10.9739 12 10.75 11.7761 10.75 11.5Z" fill="#3D4151"/>
</svg>
