<svg width="24" height="24" viewBox="0 0 24 24" fill="none" xmlns="http://www.w3.org/2000/svg">
<rect width="24" height="24" rx="3" fill="#CCE0D7"/>
<path fill-rule="evenodd" clip-rule="evenodd" d="M4.5 11.5C4.5 11.2239 4.72386 11 5 11H19C19.2761 11 19.5 11.2239 19.5 11.5C19.5 11.7761 19.2761 12 19 12H5C4.72386 12 4.5 11.7761 4.5 11.5Z" fill="#3D4151"/>
<path fill-rule="evenodd" clip-rule="evenodd" d="M15.5 15C15.7761 15 16 15.2239 16 15.5L16 17L17.5 17V15.5C17.5 15.2239 17.7239 15 18 15C18.2761 15 18.5 15.2239 18.5 15.5V17C18.5 17.2652 18.3946 17.5196 18.2071 17.7071C18.0196 17.8946 17.7652 18 17.5 18H16C15.7348 18 15.4804 17.8946 15.2929 17.7071C15.1054 17.5196 15 17.2652 15 17V15.5C15 15.2239 15.2239 15 15.5 15Z" fill="#3D4151"/>
<path fill-rule="evenodd" clip-rule="evenodd" d="M6 15C6.27614 15 6.5 15.2239 6.5 15.5V17H8V15.5C8 15.2239 8.22386 15 8.5 15C8.77614 15 9 15.2239 9 15.5V17C9 17.2652 8.89464 17.5196 8.70711 17.7071C8.51957 17.8946 8.26522 18 8 18H6.5C6.23478 18 5.98043 17.8946 5.79289 17.7071C5.60536 17.5196 5.5 17.2652 5.5 17V15.5C5.5 15.2239 5.72386 15 6 15Z" fill="#3D4151"/>
<path fill-rule="evenodd" clip-rule="evenodd" d="M7.5 13.5C7.5 13.2239 7.72386 13 8 13H9C9.27614 13 9.5 13.2239 9.5 13.5C9.5 13.7761 9.27614 14 9 14H8C7.72386 14 7.5 13.7761 7.5 13.5Z" fill="#3D4151"/>
<path fill-rule="evenodd" clip-rule="evenodd" d="M14.5 13.5C14.5 13.2239 14.7239 13 15 13H16C16.2761 13 16.5 13.2239 16.5 13.5C16.5 13.7761 16.2761 14 16 14H15C14.7239 14 14.5 13.7761 14.5 13.5Z" fill="#3D4151"/>
<path fill-rule="evenodd" clip-rule="evenodd" d="M8.325 6.5H15.677C15.8709 6.50078 16.0604 6.55791 16.2224 6.66444C16.3838 6.7706 16.5111 6.92125 16.5887 7.09817C16.589 7.09878 16.5892 7.09939 16.5895 7.1L18.4568 11.2967C18.4853 11.3607 18.5 11.43 18.5 11.5V15.5C18.5 15.7761 18.2761 16 18 16H6C5.72386 16 5.5 15.7761 5.5 15.5V11.5C5.5 11.43 5.51471 11.3607 5.54318 11.2967L7.41133 7.09809C7.48897 6.92121 7.61618 6.77058 7.7776 6.66444C7.93961 6.55791 8.1291 6.50078 8.32299 6.5L8.325 6.5ZM8.32701 7.5L8.32558 7.50326L6.5 11.6062V15H17.5V11.6062L15.673 7.5L8.32701 7.5Z" fill="#3D4151"/>
</svg>
