<svg width="24" height="24" viewBox="0 0 24 24" fill="none" xmlns="http://www.w3.org/2000/svg">
<rect width="24" height="24" rx="3" fill="#CCE0D7"/>
<path fill-rule="evenodd" clip-rule="evenodd" d="M6 9.5C5.86739 9.5 5.74021 9.55268 5.64645 9.64645C5.55268 9.74022 5.5 9.86739 5.5 10V14.5C5.5 14.6326 5.55268 14.7598 5.64645 14.8536C5.74021 14.9473 5.86739 15 6 15H11C11.2761 15 11.5 15.2239 11.5 15.5C11.5 15.7761 11.2761 16 11 16H6C5.60217 16 5.22064 15.842 4.93934 15.5607C4.65804 15.2794 4.5 14.8978 4.5 14.5V10C4.5 9.60218 4.65804 9.22064 4.93934 8.93934C5.22064 8.65804 5.60217 8.5 6 8.5H11C11.2761 8.5 11.5 8.72386 11.5 9C11.5 9.27614 11.2761 9.5 11 9.5H6Z" fill="#3D4151"/>
<path fill-rule="evenodd" clip-rule="evenodd" d="M7.5 17.5C7.5 17.2239 7.72386 17 8 17H11C11.2761 17 11.5 17.2239 11.5 17.5C11.5 17.7761 11.2761 18 11 18H8C7.72386 18 7.5 17.7761 7.5 17.5Z" fill="#3D4151"/>
<path fill-rule="evenodd" clip-rule="evenodd" d="M14.5 8.5C14.5 8.22386 14.7239 8 15 8H17C17.2761 8 17.5 8.22386 17.5 8.5C17.5 8.77614 17.2761 9 17 9H15C14.7239 9 14.5 8.77614 14.5 8.5Z" fill="#3D4151"/>
<path fill-rule="evenodd" clip-rule="evenodd" d="M14.5 10.5C14.5 10.2239 14.7239 10 15 10H17C17.2761 10 17.5 10.2239 17.5 10.5C17.5 10.7761 17.2761 11 17 11H15C14.7239 11 14.5 10.7761 14.5 10.5Z" fill="#3D4151"/>
<path fill-rule="evenodd" clip-rule="evenodd" d="M12.5 7C12.5 6.44772 12.9477 6 13.5 6H18.5C19.0523 6 19.5 6.44772 19.5 7V17C19.5 17.5523 19.0523 18 18.5 18H13.5C12.9477 18 12.5 17.5523 12.5 17V7ZM18.5 7H13.5V17H18.5V7Z" fill="#3D4151"/>
<path fill-rule="evenodd" clip-rule="evenodd" d="M9.5 15C9.77614 15 10 15.2239 10 15.5V17.5C10 17.7761 9.77614 18 9.5 18C9.22386 18 9 17.7761 9 17.5V15.5C9 15.2239 9.22386 15 9.5 15Z" fill="#3D4151"/>
<path d="M16 16C16.4142 16 16.75 15.6642 16.75 15.25C16.75 14.8358 16.4142 14.5 16 14.5C15.5858 14.5 15.25 14.8358 15.25 15.25C15.25 15.6642 15.5858 16 16 16Z" fill="#3D4151"/>
</svg>
