<svg width="24" height="24" viewBox="0 0 24 24" fill="none" xmlns="http://www.w3.org/2000/svg">
<rect width="24" height="24" rx="3" fill="#CCE0D7"/>
<path fill-rule="evenodd" clip-rule="evenodd" d="M11.3257 5.93668C11.51 5.76845 11.7505 5.67517 12 5.67517C12.2495 5.67517 12.49 5.76845 12.6743 5.93668C12.6745 5.93691 12.6748 5.93713 12.675 5.93735L17.6738 10.48L17.6808 10.4865C17.7796 10.5798 17.8588 10.692 17.9136 10.8163C17.9684 10.9407 17.9977 11.0748 17.9999 11.2107L18 11.2188V17C18 17.2652 17.8946 17.5196 17.7071 17.7071C17.5196 17.8947 17.2652 18 17 18H14C13.7348 18 13.4804 17.8947 13.2929 17.7071C13.1054 17.5196 13 17.2652 13 17V14H11V17C11 17.2652 10.8946 17.5196 10.7071 17.7071C10.5196 17.8947 10.2652 18 10 18H7C6.73478 18 6.48043 17.8947 6.29289 17.7071C6.10536 17.5196 6 17.2652 6 17V11.2188L6.00007 11.2107C6.00226 11.0748 6.03163 10.9407 6.08644 10.8163C6.14124 10.692 6.22038 10.5798 6.31919 10.4865L6.32623 10.48L11.325 5.93735C11.3252 5.93713 11.3255 5.93691 11.3257 5.93668ZM7.00474 11.2146L11.9988 6.67629L12 6.67517L12.0012 6.67629L16.9953 11.2146C16.9966 11.2161 16.9977 11.2178 16.9985 11.2196C16.9993 11.2215 16.9998 11.2235 17 11.2256V17H14V14C14 13.7348 13.8946 13.4804 13.7071 13.2929C13.5196 13.1054 13.2652 13 13 13H11C10.7348 13 10.4804 13.1054 10.2929 13.2929C10.1054 13.4804 10 13.7348 10 14V17H7V11.2256C7.00018 11.2235 7.00069 11.2215 7.00152 11.2196C7.00233 11.2178 7.00341 11.2161 7.00474 11.2146Z" fill="#3D4151"/>
</svg>
