<svg width="24" height="24" viewBox="0 0 24 24" fill="none" xmlns="http://www.w3.org/2000/svg">
<rect width="24" height="24" rx="3" fill="#CCE0D7"/>
<path fill-rule="evenodd" clip-rule="evenodd" d="M12 6.5C8.96243 6.5 6.5 8.96243 6.5 12C6.5 15.0376 8.96243 17.5 12 17.5C15.0376 17.5 17.5 15.0376 17.5 12C17.5 8.96243 15.0376 6.5 12 6.5ZM5.5 12C5.5 8.41015 8.41015 5.5 12 5.5C15.5899 5.5 18.5 8.41015 18.5 12C18.5 15.5899 15.5899 18.5 12 18.5C8.41015 18.5 5.5 15.5899 5.5 12Z" fill="#3D4151"/>
<path fill-rule="evenodd" clip-rule="evenodd" d="M7.39691 7.40844C7.59243 7.21343 7.90901 7.21384 8.10401 7.40936C9.31935 8.62787 10.0013 10.279 10 12C10.0013 13.7209 9.31935 15.372 8.10401 16.5905C7.90901 16.7861 7.59243 16.7865 7.39691 16.5915C7.20139 16.3965 7.20098 16.0799 7.39599 15.8844C8.42424 14.8534 9.00117 13.4564 9 12.0004V11.9996C9.00117 10.5435 8.42424 9.14649 7.39599 8.11554C7.20098 7.92003 7.20139 7.60344 7.39691 7.40844ZM10 12C10 12.0001 10 12.0002 10 12.0004L9.5 12L10 11.9996C10 11.9997 10 11.9998 10 12Z" fill="#3D4151"/>
<path fill-rule="evenodd" clip-rule="evenodd" d="M16.6027 7.4081C16.7984 7.60293 16.7991 7.91951 16.6042 8.11521C15.577 9.14711 15.0002 10.5439 15.0002 12C15.0002 13.456 15.577 14.8528 16.6042 15.8847C16.7991 16.0804 16.7984 16.397 16.6027 16.5918C16.407 16.7866 16.0904 16.7859 15.8955 16.5902C14.6817 15.3709 14.0002 13.7204 14.0002 12C14.0002 10.2795 14.6817 8.629 15.8955 7.40969C16.0904 7.21399 16.407 7.21328 16.6027 7.4081Z" fill="#3D4151"/>
<path fill-rule="evenodd" clip-rule="evenodd" d="M5.5 12C5.5 11.7239 5.72386 11.5 6 11.5H18C18.2761 11.5 18.5 11.7239 18.5 12C18.5 12.2761 18.2761 12.5 18 12.5H6C5.72386 12.5 5.5 12.2761 5.5 12Z" fill="#3D4151"/>
<path fill-rule="evenodd" clip-rule="evenodd" d="M12 5.5C12.2761 5.5 12.5 5.72386 12.5 6V18C12.5 18.2761 12.2761 18.5 12 18.5C11.7239 18.5 11.5 18.2761 11.5 18V6C11.5 5.72386 11.7239 5.5 12 5.5Z" fill="#3D4151"/>
</svg>
