<svg width="24" height="24" viewBox="0 0 24 24" fill="none" xmlns="http://www.w3.org/2000/svg">
<rect width="24" height="24" rx="3" fill="#CCE0D7"/>
<path d="M12 4.66663V19.3333" stroke="#3D4151" stroke-linecap="round" stroke-linejoin="round"/>
<path d="M15.3333 7.33337H10.3333C9.71449 7.33337 9.121 7.57921 8.68342 8.01679C8.24583 8.45438 8 9.04787 8 9.66671C8 10.2855 8.24583 10.879 8.68342 11.3166C9.121 11.7542 9.71449 12 10.3333 12H13.6667C14.2855 12 14.879 12.2459 15.3166 12.6835C15.7542 13.121 16 13.7145 16 14.3334C16 14.9522 15.7542 15.5457 15.3166 15.9833C14.879 16.4209 14.2855 16.6667 13.6667 16.6667H8" stroke="#3D4151" stroke-linecap="round" stroke-linejoin="round"/>
</svg>
