<svg width="24" height="24" viewBox="0 0 24 24" fill="none" xmlns="http://www.w3.org/2000/svg">
<rect width="24" height="24" rx="3" fill="#CCE0D7"/>
<path fill-rule="evenodd" clip-rule="evenodd" d="M17.284 8.22329L18.8193 11.1628L18.8193 11.1628L18.8205 11.1651L17.7159 11.7152L16.179 8.77581L17.284 8.22329ZM19.0436 11.6122L19.2666 12.0601L17.7229 12.8289C17.4791 12.9502 17.1831 12.8543 17.0569 12.613L15.0569 8.78797C14.9947 8.66907 14.983 8.53016 15.0242 8.40249C15.0655 8.27481 15.1564 8.16909 15.2764 8.10908L16.8375 7.32855C17.0707 7.21033 17.3412 7.18879 17.5903 7.26868C17.8398 7.34872 18.0476 7.52409 18.1685 7.75659C18.1686 7.75682 18.1687 7.75704 18.1688 7.75727L19.7045 10.6975C19.7047 10.6979 19.7049 10.6984 19.7052 10.6988C19.7671 10.8163 19.805 10.945 19.8167 11.0773C19.8284 11.2101 19.8134 11.3439 19.7727 11.4709C19.7319 11.5978 19.6662 11.7153 19.5793 11.8165C19.4925 11.9177 19.3863 12.0004 19.267 12.06L19.0436 11.6122Z" fill="#3D4151"/>
<path fill-rule="evenodd" clip-rule="evenodd" d="M6.71844 8.15579L5.18194 11.0976L6.2844 11.6511L7.82119 8.70716L6.71844 8.15579ZM6.40492 7.20619C6.6524 7.12447 6.92202 7.1426 7.15633 7.25673L7.16101 7.25901L8.7235 8.04028C8.84346 8.10026 8.9343 8.20592 8.9756 8.33353C9.0169 8.46113 9.0052 8.59998 8.94313 8.71888L6.94313 12.5501C6.81678 12.7922 6.51959 12.8881 6.27556 12.7656L4.73361 11.9915C4.61499 11.933 4.50924 11.8513 4.42257 11.7513C4.3353 11.6507 4.26916 11.5335 4.22809 11.4067C4.18702 11.28 4.17185 11.1463 4.18349 11.0136C4.19506 10.8815 4.23294 10.7532 4.29487 10.636L5.83133 7.69423C5.83142 7.69407 5.8315 7.69391 5.83158 7.69374C5.95191 7.46277 6.1576 7.28785 6.40492 7.20619Z" fill="#3D4151"/>
<path fill-rule="evenodd" clip-rule="evenodd" d="M6.10589 12.0111C6.27581 11.7934 6.59002 11.7547 6.80769 11.9246L10.2264 14.5934L10.2339 14.5993L13.8337 15.4993C13.8376 15.4997 13.8416 15.4994 13.8455 15.4983C13.8493 15.4973 13.8529 15.4955 13.856 15.4932L16.1323 13.2169L17.1193 12.0572C17.2982 11.8469 17.6138 11.8215 17.8241 12.0005C18.0344 12.1795 18.0598 12.495 17.8808 12.7053L16.8808 13.8803C16.8721 13.8905 16.863 13.9003 16.8536 13.9098L14.5536 16.2098C14.5514 16.212 14.5492 16.2141 14.5471 16.2162C14.5452 16.218 14.5434 16.2197 14.5415 16.2214C14.4198 16.3352 14.2724 16.4179 14.1118 16.4622C13.9513 16.5066 13.7823 16.5114 13.6195 16.4762C13.6142 16.4751 13.609 16.4739 13.6038 16.4726L9.97875 15.5663C9.97441 15.5652 9.97008 15.5641 9.96577 15.5629C9.83522 15.5265 9.71345 15.464 9.60784 15.3791L6.19235 12.7129C5.97468 12.543 5.93597 12.2288 6.10589 12.0111Z" fill="#3D4151"/>
<path fill-rule="evenodd" clip-rule="evenodd" d="M12.9572 9.05628L10.514 11.4932C10.5136 11.4937 10.5133 11.4943 10.5131 11.4949C10.5128 11.4957 10.5126 11.4966 10.5127 11.4975C10.5128 11.4984 10.513 11.4992 10.5135 11.5C10.5139 11.5008 10.5145 11.5015 10.5152 11.502L10.8507 11.7567C11.1106 11.9502 11.426 12.0547 11.7501 12.0547C12.0746 12.0547 12.3904 11.9499 12.6505 11.7559C12.6507 11.7558 12.6508 11.7557 12.651 11.7556L13.4501 11.1563C13.6257 11.0246 13.8666 11.0228 14.0441 11.1519L16.7941 13.1519C17.0175 13.3143 17.0668 13.627 16.9044 13.8504C16.742 14.0737 16.4293 14.1231 16.206 13.9606L13.7546 12.1778L13.2491 12.557C12.8161 12.8801 12.2903 13.0547 11.7501 13.0547C11.2098 13.0547 10.684 12.8801 10.251 12.557L10.2477 12.5545L9.9102 12.2983C9.79676 12.212 9.70268 12.1025 9.63468 11.9772C9.56667 11.852 9.52604 11.7138 9.51547 11.5717C9.5049 11.4296 9.52463 11.2868 9.57336 11.1529C9.62209 11.019 9.69871 10.897 9.79814 10.7949L9.8032 10.7898L12.2536 8.3456C12.3463 8.25343 12.4562 8.18043 12.577 8.13079C12.6976 8.08127 12.8267 8.05596 12.957 8.05628C12.9574 8.05628 12.9577 8.05628 12.9581 8.05628L12.9563 8.55628V8.05628H12.957H15.5001C15.7762 8.05628 16.0001 8.28014 16.0001 8.55628C16.0001 8.83242 15.7762 9.05628 15.5001 9.05628H12.9572Z" fill="#3D4151"/>
<path fill-rule="evenodd" clip-rule="evenodd" d="M11.8816 8.03064L14.0434 9.01158C14.2948 9.12569 14.5912 9.01433 14.7053 8.76287C14.8194 8.5114 14.7081 8.21505 14.4566 8.10094L12.2941 7.11969L12.2934 7.11938C12.0774 7.02176 11.8338 7.00404 11.6059 7.06938L8.39716 8.00761C8.13212 8.08511 7.98008 8.36279 8.05758 8.62784C8.13508 8.89288 8.41276 9.04492 8.67781 8.96742L11.8816 8.03064Z" fill="#3D4151"/>
<path fill-rule="evenodd" clip-rule="evenodd" d="M7.12227 15.1724C7.3032 14.9638 7.61898 14.9413 7.8276 15.1223L9.23837 16.3458C9.2393 16.346 9.24023 16.3462 9.24116 16.3465L11.1224 16.8215C11.3902 16.8891 11.5524 17.1609 11.4848 17.4287C11.4172 17.6964 11.1453 17.8586 10.8776 17.791L9.00135 17.3173C8.846 17.281 8.70211 17.2065 8.58263 17.1008L7.17242 15.8777C6.9638 15.6968 6.94135 15.381 7.12227 15.1724Z" fill="#3D4151"/>
</svg>
