<svg width="24" height="24" viewBox="0 0 24 24" fill="none" xmlns="http://www.w3.org/2000/svg">
<rect width="24" height="24" rx="3" fill="#CCE0D7"/>
<path fill-rule="evenodd" clip-rule="evenodd" d="M7 12.225C7.27614 12.225 7.5 12.4488 7.5 12.725V17H16.5V12.725C16.5 12.4488 16.7239 12.225 17 12.225C17.2761 12.225 17.5 12.4488 17.5 12.725V17C17.5 17.2652 17.3946 17.5195 17.2071 17.7071C17.0196 17.8946 16.7652 18 16.5 18H7.5C7.23478 18 6.98043 17.8946 6.79289 17.7071C6.60536 17.5195 6.5 17.2652 6.5 17V12.725C6.5 12.4488 6.72386 12.225 7 12.225Z" fill="#3D4151"/>
<path fill-rule="evenodd" clip-rule="evenodd" d="M7.36972 6.00003C7.37148 6.00001 7.37324 6 7.375 6H16.6291C16.8447 6.00177 17.054 6.07277 17.2263 6.20249C17.3985 6.33221 17.5245 6.51381 17.5857 6.72054L17.5872 6.72551L18.4809 9.86302C18.5238 10.0138 18.4936 10.1761 18.3991 10.3013C18.3046 10.4264 18.1568 10.5 18 10.5H6C5.84318 10.5 5.69544 10.4264 5.60095 10.3013C5.50646 10.1761 5.47617 10.0138 5.51913 9.86302L6.4143 6.72053C6.47552 6.5138 6.60154 6.33221 6.77375 6.20249C6.94565 6.073 7.15453 6.00205 7.36972 6.00003ZM7.37871 7C7.37857 7 7.37885 6.99999 7.37871 7L7.37089 6.00002C7.3705 6.00002 7.37011 6.00002 7.36972 6.00003M7.37871 7H7.375C7.37483 7 7.37465 7 7.37448 7L7.37462 6.99948L7.11007 6.92412C7.11261 6.92571 7.11517 6.92728 7.11773 6.92882M7.35705 6.99968C7.36284 6.99989 7.36865 6.99999 7.37448 7L7.37335 7.00397C7.37328 7.00413 7.37323 7.00429 7.37318 7.00446L7.35705 6.99968ZM6.66233 9.5H6V10L6.48087 10.137L6.66233 9.5ZM17.3377 9.5L17.5191 10.137L18 10V9.5H17.3377ZM16.6267 7.00397L16.6254 6.99948L17.1063 6.8625L16.6268 7.00446C16.6268 7.00429 16.6267 7.00413 16.6267 7.00397ZM16.6209 6.99998C16.6208 6.99997 16.621 6.99998 16.6209 6.99998L16.625 6.5V7L16.6209 6.99998Z" fill="#3D4151"/>
<path fill-rule="evenodd" clip-rule="evenodd" d="M6 9.5C6.27614 9.5 6.5 9.72386 6.5 10V11C6.5 11.3978 6.65804 11.7794 6.93934 12.0607C7.22064 12.342 7.60218 12.5 8 12.5C8.39782 12.5 8.77936 12.342 9.06066 12.0607C9.34196 11.7794 9.5 11.3978 9.5 11V10C9.5 9.72386 9.72386 9.5 10 9.5C10.2761 9.5 10.5 9.72386 10.5 10V11C10.5 11.663 10.2366 12.2989 9.76777 12.7678C9.29893 13.2366 8.66304 13.5 8 13.5C7.33696 13.5 6.70107 13.2366 6.23223 12.7678C5.76339 12.2989 5.5 11.663 5.5 11V10C5.5 9.72386 5.72386 9.5 6 9.5Z" fill="#3D4151"/>
<path fill-rule="evenodd" clip-rule="evenodd" d="M10 9.5C10.2761 9.5 10.5 9.72386 10.5 10V11C10.5 11.3978 10.658 11.7794 10.9393 12.0607C11.2206 12.342 11.6022 12.5 12 12.5C12.3978 12.5 12.7794 12.342 13.0607 12.0607C13.342 11.7794 13.5 11.3978 13.5 11V10C13.5 9.72386 13.7239 9.5 14 9.5C14.2761 9.5 14.5 9.72386 14.5 10V11C14.5 11.663 14.2366 12.2989 13.7678 12.7678C13.2989 13.2366 12.663 13.5 12 13.5C11.337 13.5 10.7011 13.2366 10.2322 12.7678C9.76339 12.2989 9.5 11.663 9.5 11V10C9.5 9.72386 9.72386 9.5 10 9.5Z" fill="#3D4151"/>
<path fill-rule="evenodd" clip-rule="evenodd" d="M14 9.5C14.2761 9.5 14.5 9.72386 14.5 10V11C14.5 11.3978 14.658 11.7794 14.9393 12.0607C15.2206 12.342 15.6022 12.5 16 12.5C16.3978 12.5 16.7794 12.342 17.0607 12.0607C17.342 11.7794 17.5 11.3978 17.5 11V10C17.5 9.72386 17.7239 9.5 18 9.5C18.2761 9.5 18.5 9.72386 18.5 10V11C18.5 11.663 18.2366 12.2989 17.7678 12.7678C17.2989 13.2366 16.663 13.5 16 13.5C15.337 13.5 14.7011 13.2366 14.2322 12.7678C13.7634 12.2989 13.5 11.663 13.5 11V10C13.5 9.72386 13.7239 9.5 14 9.5Z" fill="#3D4151"/>
</svg>
