<svg width="24" height="24" viewBox="0 0 24 24" fill="none" xmlns="http://www.w3.org/2000/svg">
<rect width="24" height="24" rx="3" fill="#CCE0D7"/>
<path fill-rule="evenodd" clip-rule="evenodd" d="M12 6.5C8.96243 6.5 6.5 8.96243 6.5 12C6.5 15.0376 8.96243 17.5 12 17.5C15.0376 17.5 17.5 15.0376 17.5 12C17.5 8.96243 15.0376 6.5 12 6.5ZM5.5 12C5.5 8.41015 8.41015 5.5 12 5.5C15.5899 5.5 18.5 8.41015 18.5 12C18.5 15.5899 15.5899 18.5 12 18.5C8.41015 18.5 5.5 15.5899 5.5 12Z" fill="#3D4151"/>
<path d="M9.75 12.75C10.1642 12.75 10.5 12.4142 10.5 12C10.5 11.5858 10.1642 11.25 9.75 11.25C9.33579 11.25 9 11.5858 9 12C9 12.4142 9.33579 12.75 9.75 12.75Z" fill="#3D4151"/>
<path d="M14.25 12.75C14.6642 12.75 15 12.4142 15 12C15 11.5858 14.6642 11.25 14.25 11.25C13.8358 11.25 13.5 11.5858 13.5 12C13.5 12.4142 13.8358 12.75 14.25 12.75Z" fill="#3D4151"/>
<path fill-rule="evenodd" clip-rule="evenodd" d="M9.92729 14.2234C10.0801 13.9934 10.3904 13.9308 10.6204 14.0835C11.0293 14.3551 11.5092 14.4999 12.0001 14.4999C12.4909 14.4999 12.9708 14.3551 13.3797 14.0835C13.6097 13.9308 13.92 13.9934 14.0728 14.2234C14.2256 14.4535 14.163 14.7638 13.9329 14.9166C13.3601 15.297 12.6877 15.4999 12.0001 15.4999C11.3124 15.4999 10.64 15.297 10.0672 14.9166C9.83715 14.7638 9.77452 14.4535 9.92729 14.2234Z" fill="#3D4151"/>
<path fill-rule="evenodd" clip-rule="evenodd" d="M12.3123 5.60958C12.528 5.78209 12.5629 6.09674 12.3904 6.31237C11.9419 6.87307 11.719 7.43188 11.6081 7.8476C11.5527 8.05542 11.5256 8.22637 11.5124 8.34195C11.5058 8.39966 11.5027 8.44329 11.5012 8.47049C11.5005 8.48409 11.5002 8.49355 11.5001 8.49857L11.5 8.50208C11.5005 8.63394 11.5532 8.76029 11.6464 8.85357C11.7402 8.94734 11.8674 9.00002 12 9.00002C12.1326 9.00002 12.2598 8.94734 12.3536 8.85357C12.4473 8.7598 12.5 8.63263 12.5 8.50002C12.5 8.22388 12.7239 8.00002 13 8.00002C13.2761 8.00002 13.5 8.22388 13.5 8.50002C13.5 8.89784 13.342 9.27937 13.0607 9.56068C12.7794 9.84198 12.3978 10 12 10C11.6022 10 11.2206 9.84198 10.9393 9.56068C10.658 9.27937 10.5 8.89784 10.5 8.50002H11C10.5 8.50002 10.5 8.49982 10.5 8.49961L10.5 8.49918L10.5 8.49822L10.5 8.49596L10.5001 8.49005L10.5004 8.47278C10.5008 8.45888 10.5014 8.44027 10.5027 8.41724C10.5051 8.3712 10.5098 8.30741 10.5189 8.2284C10.5369 8.07054 10.5723 7.85087 10.6419 7.58994C10.781 7.06816 11.0581 6.37697 11.6096 5.68767C11.7821 5.47204 12.0967 5.43708 12.3123 5.60958Z" fill="#3D4151"/>
</svg>
