<svg width="32" height="32" viewBox="0 0 32 32" fill="none" xmlns="http://www.w3.org/2000/svg">
<path d="M32 27.5556C32 30.0444 30.0444 32 27.5556 32H4.44444C1.95556 32 0 30.0444 0 27.5556V4.44444C0 1.95556 1.95556 0 4.44444 0H27.5556C30.0444 0 32 1.95556 32 4.44444V27.5556Z" fill="#FF9800"/>
<path d="M18.5777 21.6889C19.911 21.4222 21.1555 20.8889 22.2221 20.1778C23.111 19.6444 23.3777 18.4889 22.8444 17.6C22.311 16.7111 21.1555 16.4444 20.2666 16.9778C17.6888 18.5778 14.311 18.5778 11.7333 16.9778C10.8444 16.4444 9.68882 16.7111 9.15548 17.6C8.62215 18.4889 8.88882 19.6444 9.77771 20.1778C10.9333 20.8889 12.1777 21.4222 13.4222 21.6889L9.86659 25.2444C9.15548 25.9555 9.15548 27.1111 9.86659 27.9111C10.2222 28.2667 10.6666 28.4444 11.1999 28.4444C11.6444 28.4444 12.1777 28.2667 12.5333 27.9111L15.9999 24.4444L19.4666 27.9111C20.1777 28.6222 21.3333 28.6222 22.1333 27.9111C22.8444 27.2 22.8444 26.0444 22.1333 25.2444L18.5777 21.6889ZM15.9999 3.55554C12.5333 3.55554 9.77771 6.3111 9.77771 9.77776C9.77771 13.2444 12.5333 16 15.9999 16C19.4666 16 22.2221 13.2444 22.2221 9.77776C22.2221 6.3111 19.4666 3.55554 15.9999 3.55554ZM15.9999 12.4444C14.4888 12.4444 13.3333 11.2889 13.3333 9.77776C13.3333 8.26665 14.4888 7.1111 15.9999 7.1111C17.511 7.1111 18.6666 8.26665 18.6666 9.77776C18.6666 11.2889 17.511 12.4444 15.9999 12.4444Z" fill="white"/>
</svg>
