<svg width="32" height="32" viewBox="0 0 32 32" fill="none" xmlns="http://www.w3.org/2000/svg">
<path d="M0 15.3333C0 8.1056 0 4.49067 2.24533 2.24533C4.49067 0 8.10667 0 15.3333 0H16.6667C23.8944 0 27.5093 0 29.7547 2.24533C32 4.49067 32 8.10667 32 15.3333V16.6667C32 23.8944 32 27.5093 29.7547 29.7547C27.5093 32 23.8933 32 16.6667 32H15.3333C8.1056 32 4.49067 32 2.24533 29.7547C0 27.5093 0 23.8933 0 16.6667V15.3333Z" fill="#2787F5"/>
<path fill-rule="evenodd" clip-rule="evenodd" d="M8.66698 10H6.33418C5.66751 10 5.53418 10.3136 5.53418 10.6603C5.53418 11.2779 6.32458 14.3435 9.21738 18.3968C11.1448 21.1659 13.8616 22.6667 16.3331 22.6667C17.8168 22.6667 18.0003 22.3328 18.0003 21.76V19.6672C18.0003 19.0005 18.1411 18.8672 18.6104 18.8672C18.9571 18.8672 19.5491 19.04 20.9347 20.3744C22.5166 21.9573 22.7768 22.6667 23.6664 22.6667H26.0003C26.667 22.6667 27.0008 22.3328 26.8078 21.6747C26.5976 21.0197 25.8424 20.0683 24.8398 18.9408C24.2958 18.2987 23.4808 17.6064 23.2334 17.2597C22.8867 16.8149 22.9859 16.6176 23.2334 16.2219C23.2334 16.2219 26.076 12.2176 26.3726 10.8576C26.5219 10.3637 26.3726 10 25.6664 10H23.3336C22.7406 10 22.4664 10.3136 22.3182 10.6603C22.3182 10.6603 21.132 13.552 19.451 15.4304C18.907 15.9744 18.6595 16.1483 18.363 16.1483C18.2147 16.1483 18.0003 15.9744 18.0003 15.4805V10.8576C18.0003 10.2645 17.8286 10 17.3336 10H13.6664C13.2963 10 13.0734 10.2752 13.0734 10.5365C13.0734 11.0987 13.9139 11.2288 14.0003 12.8107V16.2464C14.0003 17.0005 13.8648 17.1371 13.5672 17.1371C12.7768 17.1371 10.8526 14.2315 9.71125 10.9077C9.48725 10.2613 9.26325 10 8.66698 10Z" fill="white"/>
</svg>
