<svg width="18" height="16" viewBox="0 0 18 16" fill="none" xmlns="http://www.w3.org/2000/svg">
<path d="M15.6889 2.23375C15.3 1.84261 14.8383 1.53234 14.3301 1.32065C13.8218 1.10896 13.2771 1 12.727 1C12.1769 1 11.6321 1.10896 11.1239 1.32065C10.6157 1.53234 10.1539 1.84261 9.76503 2.23375L8.95791 3.04511L8.1508 2.23375C7.36524 1.44406 6.29979 1.00041 5.18884 1.00041C4.07789 1.00041 3.01244 1.44406 2.22688 2.23375C1.44132 3.02344 1 4.0945 1 5.21129C1 6.32809 1.44132 7.39915 2.22688 8.18884L3.034 9.0002L8.95791 14.9553L14.8818 9.0002L15.6889 8.18884C16.078 7.79789 16.3867 7.33371 16.5973 6.82281C16.8078 6.31191 16.9162 5.76431 16.9162 5.21129C16.9162 4.65828 16.8078 4.11068 16.5973 3.59978C16.3867 3.08888 16.078 2.6247 15.6889 2.23375Z" stroke="#696F8C" stroke-width="2" stroke-linecap="round" stroke-linejoin="round"/>
</svg>
