<svg width="16" height="17" viewBox="0 0 16 17" fill="none" xmlns="http://www.w3.org/2000/svg">
<path fill-rule="evenodd" clip-rule="evenodd" d="M1.5 4.24255C1.5 3.69027 1.94772 3.24255 2.5 3.24255H13.5C14.0523 3.24255 14.5 3.69027 14.5 4.24255V13.2426C14.5 13.7948 14.0523 14.2426 13.5 14.2426H2.5C1.94772 14.2426 1.5 13.7948 1.5 13.2426V4.24255ZM13.5 4.24255H2.5V13.2426H13.5V4.24255Z" fill="#696F8C"/>
<path fill-rule="evenodd" clip-rule="evenodd" d="M4.25 6.74255C4.25 6.46641 4.47386 6.24255 4.75 6.24255H11.25C11.5261 6.24255 11.75 6.46641 11.75 6.74255C11.75 7.0187 11.5261 7.24255 11.25 7.24255H4.75C4.47386 7.24255 4.25 7.0187 4.25 6.74255Z" fill="#696F8C"/>
<path fill-rule="evenodd" clip-rule="evenodd" d="M4.25 8.74255C4.25 8.46641 4.47386 8.24255 4.75 8.24255H11.25C11.5261 8.24255 11.75 8.46641 11.75 8.74255C11.75 9.0187 11.5261 9.24255 11.25 9.24255H4.75C4.47386 9.24255 4.25 9.0187 4.25 8.74255Z" fill="#696F8C"/>
<path fill-rule="evenodd" clip-rule="evenodd" d="M4.25 10.7426C4.25 10.4664 4.47386 10.2426 4.75 10.2426H11.25C11.5261 10.2426 11.75 10.4664 11.75 10.7426C11.75 11.0187 11.5261 11.2426 11.25 11.2426H4.75C4.47386 11.2426 4.25 11.0187 4.25 10.7426Z" fill="#696F8C"/>
</svg>
