<svg width="16" height="17" viewBox="0 0 16 17" fill="none" xmlns="http://www.w3.org/2000/svg">
<path fill-rule="evenodd" clip-rule="evenodd" d="M0.5 2.29749C0.5 2.02134 0.723858 1.79749 1 1.79749H2.13604C2.36926 1.79972 2.59436 1.88342 2.7724 2.03408C2.95016 2.18448 3.06984 2.39219 3.11084 2.62138C3.1109 2.62175 3.11097 2.62213 3.11104 2.62251L4.77976 11.7975H11.5C11.7761 11.7975 12 12.0213 12 12.2975C12 12.5736 11.7761 12.7975 11.5 12.7975H4.3625C4.12087 12.7975 3.91381 12.6247 3.87057 12.387L2.12646 2.79749H1C0.723858 2.79749 0.5 2.57363 0.5 2.29749Z" fill="#53586E"/>
<path fill-rule="evenodd" clip-rule="evenodd" d="M5 12.7975C4.58579 12.7975 4.25 13.1333 4.25 13.5475C4.25 13.9617 4.58579 14.2975 5 14.2975C5.41421 14.2975 5.75 13.9617 5.75 13.5475C5.75 13.1333 5.41421 12.7975 5 12.7975ZM3.25 13.5475C3.25 12.581 4.0335 11.7975 5 11.7975C5.9665 11.7975 6.75 12.581 6.75 13.5475C6.75 14.514 5.9665 15.2975 5 15.2975C4.0335 15.2975 3.25 14.514 3.25 13.5475Z" fill="#53586E"/>
<path fill-rule="evenodd" clip-rule="evenodd" d="M11.5 12.7975C11.0858 12.7975 10.75 13.1333 10.75 13.5475C10.75 13.9617 11.0858 14.2975 11.5 14.2975C11.9142 14.2975 12.25 13.9617 12.25 13.5475C12.25 13.1333 11.9142 12.7975 11.5 12.7975ZM9.75 13.5475C9.75 12.581 10.5335 11.7975 11.5 11.7975C12.4665 11.7975 13.25 12.581 13.25 13.5475C13.25 14.514 12.4665 15.2975 11.5 15.2975C10.5335 15.2975 9.75 14.514 9.75 13.5475Z" fill="#53586E"/>
<path fill-rule="evenodd" clip-rule="evenodd" d="M2.5 4.79749C2.5 4.52134 2.72386 4.29749 3 4.29749H13.5C13.6483 4.29749 13.789 4.36332 13.884 4.47721C13.979 4.5911 14.0185 4.74129 13.9919 4.88719L13.2297 9.06678C13.2296 9.06711 13.2296 9.06744 13.2295 9.06776C13.1675 9.41321 12.9858 9.7258 12.7163 9.95067C12.4467 10.1756 12.1066 10.2984 11.7556 10.2975C11.7553 10.2975 11.755 10.2975 11.7547 10.2975L11.7563 9.79749V10.2975H11.7556H3.90625C3.63011 10.2975 3.40625 10.0736 3.40625 9.79749C3.40625 9.52134 3.63011 9.29749 3.90625 9.29749H11.7563L11.7578 9.29749C11.8739 9.29784 11.9864 9.25725 12.0756 9.18285C12.1648 9.10845 12.2249 9.005 12.2453 8.89069L12.2456 8.88903L12.9006 5.29749H13.5V4.79749L13.0081 4.70778L12.9006 5.29749H3C2.72386 5.29749 2.5 5.07363 2.5 4.79749Z" fill="#53586E"/>
</svg>
