<svg width="16" height="17" viewBox="0 0 16 17" fill="none" xmlns="http://www.w3.org/2000/svg">
<path fill-rule="evenodd" clip-rule="evenodd" d="M1.5 5.20251C1.5 4.65023 1.94772 4.20251 2.5 4.20251H13.5C14.0523 4.20251 14.5 4.65023 14.5 5.20251V13.2025C14.5 13.7548 14.0523 14.2025 13.5 14.2025H2.5C1.94772 14.2025 1.5 13.7548 1.5 13.2025V5.20251ZM13.5 5.20251H2.5V13.2025H13.5V5.20251Z" fill="#696F8C"/>
<path fill-rule="evenodd" clip-rule="evenodd" d="M5.43934 2.64185C5.72064 2.36055 6.10218 2.20251 6.5 2.20251H9.5C9.89782 2.20251 10.2794 2.36055 10.5607 2.64185C10.842 2.92316 11 3.30469 11 3.70251V4.70251C11 4.97866 10.7761 5.20251 10.5 5.20251C10.2239 5.20251 10 4.97866 10 4.70251V3.70251C10 3.56991 9.94732 3.44273 9.85355 3.34896C9.75979 3.25519 9.63261 3.20251 9.5 3.20251H6.5C6.36739 3.20251 6.24022 3.25519 6.14645 3.34896C6.05268 3.44273 6 3.56991 6 3.70251V4.70251C6 4.97866 5.77614 5.20251 5.5 5.20251C5.22386 5.20251 5 4.97866 5 4.70251V3.70251C5 3.30469 5.15804 2.92316 5.43934 2.64185Z" fill="#696F8C"/>
<path fill-rule="evenodd" clip-rule="evenodd" d="M14.4329 7.84595C14.5712 8.085 14.4894 8.39085 14.2504 8.5291C12.3508 9.62769 10.1948 10.205 8.00041 10.2025C5.8052 10.2081 3.6479 9.63045 1.74915 8.52875C1.5103 8.39016 1.42902 8.08419 1.56761 7.84534C1.70619 7.60649 2.01217 7.52522 2.25101 7.6638C3.99682 8.67676 5.98039 9.20778 7.99878 9.20253L8.00068 9.20252C10.0192 9.20492 12.0024 8.67398 13.7498 7.66345C13.9888 7.5252 14.2947 7.60691 14.4329 7.84595Z" fill="#696F8C"/>
<path fill-rule="evenodd" clip-rule="evenodd" d="M6.75 7.70251C6.75 7.42637 6.97386 7.20251 7.25 7.20251H8.75C9.02614 7.20251 9.25 7.42637 9.25 7.70251C9.25 7.97866 9.02614 8.20251 8.75 8.20251H7.25C6.97386 8.20251 6.75 7.97866 6.75 7.70251Z" fill="#696F8C"/>
</svg>
