<svg width="13" height="12" viewBox="0 0 13 12" fill="none" xmlns="http://www.w3.org/2000/svg">
<path d="M11.6493 2.10129L11.6495 2.10145C11.9202 2.3639 12.134 2.67468 12.2797 3.01564C12.4253 3.35656 12.5 3.72141 12.5 4.08949C12.5 4.45758 12.4253 4.82243 12.2797 5.16335C12.134 5.5043 11.9202 5.81509 11.6495 6.07754L11.6494 6.07762L10.9902 6.71716L6.49983 11.0734L2.00947 6.71716L1.35024 6.07762C0.803982 5.54767 0.5 4.8322 0.5 4.08949C0.5 3.34679 0.803982 2.63131 1.35024 2.10137C1.89702 1.57093 2.64175 1.27034 3.42135 1.27034C4.20094 1.27034 4.94567 1.57093 5.49245 2.10137L6.15168 2.74091C6.34564 2.92908 6.65402 2.92908 6.84799 2.74091L7.50722 2.10137L7.5073 2.10129C7.77786 1.83869 8.09992 1.6296 8.45545 1.48669C8.81101 1.34376 9.19261 1.27002 9.57832 1.27002C9.96404 1.27002 10.3456 1.34376 10.7012 1.48669C11.0567 1.6296 11.3788 1.83869 11.6493 2.10129Z" stroke="#696F8C" stroke-linecap="round" stroke-linejoin="round"/>
</svg>
