<svg width="16" height="17" viewBox="0 0 16 17" fill="none" xmlns="http://www.w3.org/2000/svg">
<path fill-rule="evenodd" clip-rule="evenodd" d="M8.25004 3.10754C6.85766 3.10754 5.5223 3.66067 4.53773 4.64523C3.55316 5.6298 3.00004 6.96516 3.00004 8.35754V13.6075H8.25004C8.93948 13.6075 9.62217 13.4717 10.2591 13.2079C10.8961 12.9441 11.4748 12.5574 11.9624 12.0699C12.4499 11.5823 12.8366 11.0036 13.1004 10.3666C13.3642 9.72967 13.5 9.04698 13.5 8.35754C13.5 7.6681 13.3642 6.98541 13.1004 6.34846C12.8366 5.7115 12.4499 5.13274 11.9624 4.64523C11.4748 4.15773 10.8961 3.77101 10.2591 3.50718C9.62217 3.24334 8.93948 3.10754 8.25004 3.10754ZM8.25004 14.6075H2.98402C2.85513 14.6087 2.72728 14.5844 2.60786 14.5358C2.48723 14.4868 2.37765 14.4141 2.28557 14.322C2.1935 14.2299 2.1208 14.1204 2.07177 13.9997C2.02322 13.8803 1.99885 13.7525 2.00004 13.6236V8.35754C2.00004 6.69994 2.65852 5.11023 3.83062 3.93813C5.00273 2.76602 6.59244 2.10754 8.25004 2.10754C9.0708 2.10754 9.88353 2.2692 10.6418 2.5833C11.4001 2.89739 12.0891 3.35776 12.6695 3.93813C13.2498 4.51849 13.7102 5.20749 14.0243 5.96577C14.3384 6.72406 14.5 7.53678 14.5 8.35754C14.5 9.17831 14.3384 9.99103 14.0243 10.7493C13.7102 11.5076 13.2498 12.1966 12.6695 12.777C12.0891 13.3573 11.4001 13.8177 10.6418 14.1318C9.88353 14.4459 9.0708 14.6075 8.25004 14.6075Z" fill="#696F8C"/>
<path d="M8.25 9.35754C8.66421 9.35754 9 9.02176 9 8.60754C9 8.19333 8.66421 7.85754 8.25 7.85754C7.83579 7.85754 7.5 8.19333 7.5 8.60754C7.5 9.02176 7.83579 9.35754 8.25 9.35754Z" fill="#696F8C"/>
<path d="M5.25 9.35754C5.66421 9.35754 6 9.02176 6 8.60754C6 8.19333 5.66421 7.85754 5.25 7.85754C4.83579 7.85754 4.5 8.19333 4.5 8.60754C4.5 9.02176 4.83579 9.35754 5.25 9.35754Z" fill="#696F8C"/>
<path d="M11.25 9.35754C11.6642 9.35754 12 9.02176 12 8.60754C12 8.19333 11.6642 7.85754 11.25 7.85754C10.8358 7.85754 10.5 8.19333 10.5 8.60754C10.5 9.02176 10.8358 9.35754 11.25 9.35754Z" fill="#696F8C"/>
</svg>
