<svg width="18" height="18" viewBox="0 0 18 18" fill="none" xmlns="http://www.w3.org/2000/svg">
<path d="M10.3857 16.0803C10.245 16.3228 10.0431 16.5241 9.80014 16.664C9.5572 16.8039 9.28177 16.8776 9.00142 16.8776C8.72107 16.8776 8.44563 16.8039 8.2027 16.664C7.95976 16.5241 7.75785 16.3228 7.61717 16.0803M17.0028 12.8797H1C1.63663 12.8797 2.24719 12.6268 2.69736 12.1766C3.14752 11.7265 3.40043 11.1159 3.40043 10.4793V6.47856C3.40043 4.99308 3.99053 3.56845 5.04092 2.51806C6.09131 1.46767 7.51594 0.877563 9.00142 0.877563C10.4869 0.877563 11.9115 1.46767 12.9619 2.51806C14.0123 3.56845 14.6024 4.99308 14.6024 6.47856V10.4793C14.6024 11.1159 14.8553 11.7265 15.3055 12.1766C15.7556 12.6268 16.3662 12.8797 17.0028 12.8797Z" stroke="#696F8C" stroke-linecap="round" stroke-linejoin="round"/>
</svg>
