<svg width="16" height="17" viewBox="0 0 16 17" fill="none" xmlns="http://www.w3.org/2000/svg">
<path fill-rule="evenodd" clip-rule="evenodd" d="M4.61523 8.40799C4.61523 8.06812 4.89075 7.7926 5.23062 7.7926H10.1537C10.4936 7.7926 10.7691 8.06812 10.7691 8.40799C10.7691 8.74785 10.4936 9.02337 10.1537 9.02337H5.23062C4.89075 9.02337 4.61523 8.74785 4.61523 8.40799Z" fill="#696F8C"/>
<path fill-rule="evenodd" clip-rule="evenodd" d="M7.69253 5.33105C8.0324 5.33105 8.30792 5.60657 8.30792 5.94644V10.8695C8.30792 11.2094 8.0324 11.4849 7.69253 11.4849C7.35267 11.4849 7.07715 11.2094 7.07715 10.8695V5.94644C7.07715 5.60657 7.35267 5.33105 7.69253 5.33105Z" fill="#696F8C"/>
<path fill-rule="evenodd" clip-rule="evenodd" d="M7.69216 2.69781C4.46342 2.69781 1.846 5.31522 1.846 8.54396C1.846 11.7727 4.46342 14.3901 7.69216 14.3901C10.9209 14.3901 13.5383 11.7727 13.5383 8.54396C13.5383 5.31522 10.9209 2.69781 7.69216 2.69781ZM0.615234 8.54396C0.615234 4.63549 3.78368 1.46704 7.69216 1.46704C11.6006 1.46704 14.7691 4.63549 14.7691 8.54396C14.7691 12.4524 11.6006 15.6209 7.69216 15.6209C3.78368 15.6209 0.615234 12.4524 0.615234 8.54396Z" fill="#696F8C"/>
</svg>
