<svg width="16" height="17" viewBox="0 0 16 17" fill="none" xmlns="http://www.w3.org/2000/svg">
<path fill-rule="evenodd" clip-rule="evenodd" d="M8 5.83752C6.61929 5.83752 5.5 6.95681 5.5 8.33752C5.5 9.71824 6.61929 10.8375 8 10.8375C9.38071 10.8375 10.5 9.71824 10.5 8.33752C10.5 6.95681 9.38071 5.83752 8 5.83752ZM4.5 8.33752C4.5 6.40453 6.067 4.83752 8 4.83752C9.933 4.83752 11.5 6.40453 11.5 8.33752C11.5 10.2705 9.933 11.8375 8 11.8375C6.067 11.8375 4.5 10.2705 4.5 8.33752Z" fill="#696F8C"/>
<path fill-rule="evenodd" clip-rule="evenodd" d="M5.85916 1.66798C5.99649 1.62365 6.14627 1.64081 6.27001 1.71505L7.73156 2.59199C7.91071 2.58398 8.09013 2.58399 8.26928 2.592L9.72476 1.72101C9.84748 1.64757 9.99577 1.63019 10.1321 1.67328C11.0873 1.97504 11.9654 2.48078 12.7058 3.15549C12.8119 3.25221 12.8714 3.38989 12.8689 3.53347L12.8403 5.23236C12.939 5.38393 13.0296 5.54063 13.1116 5.70182L14.5932 6.52555C14.718 6.59491 14.8071 6.71429 14.8382 6.8536C15.0562 7.8299 15.0585 8.842 14.845 9.81928C14.8143 9.95979 14.7246 10.0803 14.5988 10.1499L13.1114 10.9737C13.0294 11.1347 12.939 11.2913 12.8403 11.4427L12.8689 13.1416C12.8714 13.2852 12.8119 13.4229 12.7058 13.5196C11.967 14.1929 11.0926 14.7001 10.1414 15.0071C10.004 15.0515 9.85425 15.0343 9.73051 14.96L8.26896 14.0831C8.08981 14.0911 7.91039 14.0911 7.73124 14.0831L6.27576 14.9541C6.15305 15.0275 6.00475 15.0449 5.86838 15.0018C4.91324 14.7001 4.03509 14.1943 3.29472 13.5196C3.18859 13.4229 3.12916 13.2852 3.13158 13.1416L3.16022 11.4466C3.0621 11.2934 2.97163 11.1355 2.88915 10.9734L1.4073 10.1495C1.28254 10.0802 1.19338 9.96081 1.16228 9.8215C0.944298 8.8452 0.941998 7.8331 1.15554 6.85582C1.18624 6.71531 1.27595 6.59483 1.40176 6.52515L2.88908 5.70141C2.97108 5.54037 3.06157 5.3838 3.16018 5.23236L3.13158 3.53347C3.12917 3.38989 3.1886 3.2522 3.29474 3.15548C4.03354 2.48224 4.90796 1.97504 5.85916 1.66798ZM4.13534 3.74797L4.16269 5.37288C4.16446 5.47815 4.13296 5.5813 4.07267 5.66761C3.93856 5.85962 3.82115 6.06276 3.72172 6.27481C3.67702 6.37014 3.60337 6.44893 3.51126 6.49995L2.0891 7.28761C1.9647 7.98211 1.96643 8.69339 2.0942 9.38729L3.51198 10.1756C3.60339 10.2264 3.67656 10.3046 3.72119 10.3992C3.8228 10.6145 3.94131 10.8214 4.07562 11.018C4.13402 11.1035 4.16444 11.205 4.16269 11.3085L4.13535 12.9271C4.67579 13.3836 5.29381 13.7395 5.95996 13.9777L7.34976 13.146C7.43778 13.0933 7.53987 13.069 7.64219 13.0763C7.8806 13.0934 8.11993 13.0934 8.35834 13.0763C8.46085 13.069 8.56313 13.0934 8.65126 13.1463L10.0455 13.9829C10.7095 13.7409 11.3256 13.3835 11.8652 12.9271L11.8378 11.3022C11.8361 11.1969 11.8676 11.0938 11.9279 11.0075C12.062 10.8155 12.1794 10.6123 12.2788 10.4003C12.3235 10.305 12.3972 10.2262 12.4893 10.1752L13.9114 9.3875C14.0358 8.69299 14.0341 7.98172 13.9063 7.28781L12.4885 6.49955C12.3968 6.44852 12.3234 6.36989 12.2788 6.27481C12.1794 6.06276 12.062 5.85962 11.9279 5.66761C11.8676 5.5813 11.8361 5.47815 11.8378 5.37288L11.8652 3.74803C11.3247 3.29149 10.7067 2.93562 10.0406 2.69741L8.65076 3.52909C8.56274 3.58177 8.46065 3.60609 8.35834 3.59878C8.11993 3.58172 7.8806 3.58172 7.64219 3.59878C7.53967 3.60611 7.43739 3.58167 7.34926 3.5288L5.95499 2.69223C5.29101 2.93423 4.67497 3.29164 4.13534 3.74797Z" fill="#696F8C"/>
</svg>
