<svg width="16" height="17" viewBox="0 0 16 17" fill="none" xmlns="http://www.w3.org/2000/svg">
<path d="M10.667 14.4675V13.1342C10.667 12.427 10.386 11.7487 9.88594 11.2486C9.38585 10.7485 8.70757 10.4675 8.00033 10.4675H3.33366C2.62641 10.4675 1.94814 10.7485 1.44804 11.2486C0.947944 11.7487 0.666992 12.427 0.666992 13.1342V14.4675" stroke="#696F8C" stroke-linecap="round" stroke-linejoin="round"/>
<path d="M5.66667 7.80086C7.13943 7.80086 8.33333 6.60696 8.33333 5.1342C8.33333 3.66144 7.13943 2.46753 5.66667 2.46753C4.19391 2.46753 3 3.66144 3 5.1342C3 6.60696 4.19391 7.80086 5.66667 7.80086Z" stroke="#696F8C" stroke-linecap="round" stroke-linejoin="round"/>
<path d="M11.333 7.80086L12.6663 9.1342L15.333 6.46753" stroke="#696F8C" stroke-linecap="round" stroke-linejoin="round"/>
</svg>
