<svg width="18" height="16" viewBox="0 0 18 16" fill="none" xmlns="http://www.w3.org/2000/svg">
<path d="M15.7729 2.23375C15.384 1.84261 14.9223 1.53234 14.414 1.32065C13.9058 1.10896 13.3611 1 12.811 1C12.2608 1 11.7161 1.10896 11.2079 1.32065C10.6997 1.53234 10.2379 1.84261 9.84901 2.23375L9.0419 3.04511L8.23478 2.23375C7.44922 1.44406 6.38377 1.00041 5.27282 1.00041C4.16187 1.00041 3.09643 1.44406 2.31087 2.23375C1.52531 3.02344 1.08398 4.0945 1.08398 5.21129C1.08398 6.32809 1.52531 7.39915 2.31087 8.18884L3.11798 9.0002L9.0419 14.9553L14.9658 9.0002L15.7729 8.18884C16.162 7.79789 16.4707 7.33371 16.6812 6.82281C16.8918 6.31191 17.0002 5.76431 17.0002 5.21129C17.0002 4.65828 16.8918 4.11068 16.6812 3.59978C16.4707 3.08888 16.162 2.6247 15.7729 2.23375Z" stroke="#696F8C" stroke-width="2" stroke-linecap="round" stroke-linejoin="round"/>
</svg>
