<svg width="16" height="16" viewBox="0 0 16 16" fill="none" xmlns="http://www.w3.org/2000/svg">
<path fill-rule="evenodd" clip-rule="evenodd" d="M2.25 3.25C2.25 2.69772 2.69772 2.25 3.25 2.25H12.75C13.3023 2.25 13.75 2.69772 13.75 3.25V12.75C13.75 13.3023 13.3023 13.75 12.75 13.75H3.25C2.69772 13.75 2.25 13.3023 2.25 12.75V3.25ZM12.75 3.25H3.25V12.75H12.75V3.25Z" fill="#272A34"/>
<path fill-rule="evenodd" clip-rule="evenodd" d="M2.25 8C2.25 7.72386 2.47386 7.5 2.75 7.5H13.25C13.5261 7.5 13.75 7.72386 13.75 8C13.75 8.27614 13.5261 8.5 13.25 8.5H2.75C2.47386 8.5 2.25 8.27614 2.25 8Z" fill="#272A34"/>
<path fill-rule="evenodd" clip-rule="evenodd" d="M5 7.5C5.27614 7.5 5.5 7.72386 5.5 8V13.25C5.5 13.5261 5.27614 13.75 5 13.75C4.72386 13.75 4.5 13.5261 4.5 13.25V8C4.5 7.72386 4.72386 7.5 5 7.5Z" fill="#272A34"/>
<path fill-rule="evenodd" clip-rule="evenodd" d="M7 7.5C7.27614 7.5 7.5 7.72386 7.5 8V13.25C7.5 13.5261 7.27614 13.75 7 13.75C6.72386 13.75 6.5 13.5261 6.5 13.25V8C6.5 7.72386 6.72386 7.5 7 7.5Z" fill="#272A34"/>
<path fill-rule="evenodd" clip-rule="evenodd" d="M9 7.5C9.27614 7.5 9.5 7.72386 9.5 8V13.25C9.5 13.5261 9.27614 13.75 9 13.75C8.72386 13.75 8.5 13.5261 8.5 13.25V8C8.5 7.72386 8.72386 7.5 9 7.5Z" fill="#272A34"/>
<path fill-rule="evenodd" clip-rule="evenodd" d="M11 7.5C11.2761 7.5 11.5 7.72386 11.5 8V13.25C11.5 13.5261 11.2761 13.75 11 13.75C10.7239 13.75 10.5 13.5261 10.5 13.25V8C10.5 7.72386 10.7239 7.5 11 7.5Z" fill="#272A34"/>
</svg>
