<svg width="16" height="16" viewBox="0 0 16 16" fill="none" xmlns="http://www.w3.org/2000/svg">
<path fill-rule="evenodd" clip-rule="evenodd" d="M6.25622 2.49536C5.28201 2.43446 4.31908 2.73133 3.54828 3.33021C2.77748 3.92909 2.25184 4.78878 2.07008 5.74782C1.88832 6.70686 2.06295 7.69927 2.56117 8.53865C2.63134 8.65687 2.64974 8.79876 2.61204 8.93096L2.23029 10.2698L3.5691 9.88802C3.70131 9.85033 3.8432 9.86873 3.96142 9.93889C4.8008 10.4371 5.79321 10.6117 6.75225 10.43C7.71129 10.2482 8.57098 9.72259 9.16986 8.95179C9.76874 8.18099 10.0656 7.21806 10.0047 6.24385C9.9438 5.26964 9.52932 4.35117 8.83911 3.66096C8.14889 2.97074 7.23043 2.55626 6.25622 2.49536ZM2.93474 2.54054C3.89794 1.79217 5.10123 1.4212 6.31861 1.49731C7.536 1.57341 8.68371 2.09135 9.54622 2.95385C10.4087 3.81635 10.9267 4.96407 11.0028 6.18145C11.0789 7.39884 10.7079 8.60212 9.95953 9.56533C9.21116 10.5285 8.13688 11.1854 6.93845 11.4125C5.81222 11.6259 4.64917 11.4461 3.64259 10.9069L2.28706 11.2934L2.28529 11.2939C2.13567 11.336 1.97755 11.3375 1.82719 11.2982C1.67682 11.2589 1.53964 11.1802 1.42974 11.0703C1.31985 10.9604 1.2412 10.8232 1.2019 10.6729C1.1626 10.5225 1.16406 10.3644 1.20612 10.2148L1.20662 10.213L1.59314 8.85747C1.05399 7.8509 0.874124 6.68784 1.08757 5.56161C1.31469 4.36319 1.97154 3.28891 2.93474 2.54054Z" fill="#272A34"/>
<path fill-rule="evenodd" clip-rule="evenodd" d="M9.74467 4.98015C9.75915 4.70439 9.99443 4.49257 10.2702 4.50705C11.1292 4.55214 11.962 4.81836 12.6879 5.2799C13.4137 5.74144 14.0081 6.38265 14.4133 7.1414C14.8185 7.90016 15.0209 8.75072 15.0008 9.61066C14.9824 10.397 14.7786 11.1669 14.4072 11.8579L14.7941 13.2148C14.8361 13.3644 14.8376 13.5225 14.7983 13.6729C14.759 13.8233 14.6803 13.9604 14.5704 14.0703C14.4606 14.1802 14.3234 14.2589 14.173 14.2982C14.0226 14.3375 13.8645 14.336 13.7149 14.2939L13.7131 14.2934L12.3578 13.907C11.7722 14.2212 11.129 14.4157 10.4659 14.4782C9.72953 14.5477 8.98697 14.4527 8.29183 14.2002C7.59668 13.9476 6.96631 13.5438 6.44626 13.018C5.9262 12.4921 5.52945 11.8573 5.28466 11.1593C5.19327 10.8988 5.33042 10.6134 5.591 10.522C5.85158 10.4306 6.13691 10.5678 6.2283 10.8284C6.42407 11.3865 6.74137 11.8942 7.15729 12.3148C7.5732 12.7354 8.07734 13.0583 8.63328 13.2603C9.18922 13.4622 9.78308 13.5382 10.372 13.4826C10.9608 13.4271 11.53 13.2415 12.0384 12.9391L12.294 13.3689L12.4311 12.888L13.7699 13.2698L13.3881 11.931C13.3504 11.7985 13.3689 11.6563 13.4394 11.538C13.7915 10.947 13.985 10.275 14.0011 9.58729C14.0171 8.89955 13.8553 8.21931 13.5312 7.6125C13.2071 7.00569 12.7318 6.49288 12.1513 6.12376C11.5708 5.75464 10.9048 5.54174 10.2178 5.50567C9.94201 5.4912 9.73019 5.25591 9.74467 4.98015Z" fill="#272A34"/>
</svg>
