<svg width="16" height="16" viewBox="0 0 16 16" fill="none" xmlns="http://www.w3.org/2000/svg">
<path fill-rule="evenodd" clip-rule="evenodd" d="M8.33738 2.52346C7.00176 2.43976 5.68151 2.84645 4.62449 3.66718C3.56747 4.48792 2.84637 5.66625 2.59657 6.98097C2.34677 8.2957 2.58545 9.65639 3.26779 10.8076C3.33767 10.9255 3.35609 11.0669 3.31876 11.1988L2.73315 13.2671L4.80146 12.6815L4.93767 13.1625L5.19261 12.7324C6.34383 13.4148 7.70452 13.6534 9.01925 13.4036C10.334 13.1538 11.5123 12.4327 12.333 11.3757C13.1538 10.3187 13.5605 8.99846 13.4768 7.66283C13.3931 6.32721 12.8247 5.06807 11.8784 4.12178C10.9322 3.1755 9.67301 2.60716 8.33738 2.52346ZM4.87223 13.7007C6.19148 14.424 7.72342 14.6677 9.20591 14.3861C10.7599 14.0908 12.1528 13.2384 13.1229 11.989C14.093 10.7396 14.5737 9.17903 14.4748 7.60029C14.3759 6.02155 13.7041 4.53321 12.5855 3.41468C11.467 2.29615 9.97867 1.62436 8.39993 1.52542C6.82119 1.42648 5.26062 1.9072 4.0112 2.87732C2.76178 3.84745 1.90942 5.24027 1.61415 6.79431C1.33247 8.2768 1.57625 9.80873 2.29949 11.128L1.76957 12.9996C1.7202 13.17 1.71735 13.3505 1.76132 13.5224C1.8055 13.6951 1.89532 13.8528 2.02138 13.9788C2.14744 14.1049 2.30509 14.1947 2.4778 14.2389C2.6497 14.2829 2.83022 14.28 3.00062 14.2306L4.87223 13.7007Z" fill="#272A34"/>
<path fill-rule="evenodd" clip-rule="evenodd" d="M5.5 7C5.5 6.72386 5.72386 6.5 6 6.5H10C10.2761 6.5 10.5 6.72386 10.5 7C10.5 7.27614 10.2761 7.5 10 7.5H6C5.72386 7.5 5.5 7.27614 5.5 7Z" fill="#272A34"/>
<path fill-rule="evenodd" clip-rule="evenodd" d="M5.5 9C5.5 8.72386 5.72386 8.5 6 8.5H10C10.2761 8.5 10.5 8.72386 10.5 9C10.5 9.27614 10.2761 9.5 10 9.5H6C5.72386 9.5 5.5 9.27614 5.5 9Z" fill="#272A34"/>
</svg>
