<svg width="16" height="16" viewBox="0 0 16 16" fill="none" xmlns="http://www.w3.org/2000/svg">
<path fill-rule="evenodd" clip-rule="evenodd" d="M8 2.5C4.96243 2.5 2.5 4.96243 2.5 8C2.5 11.0376 4.96243 13.5 8 13.5C11.0376 13.5 13.5 11.0376 13.5 8C13.5 4.96243 11.0376 2.5 8 2.5ZM1.5 8C1.5 4.41015 4.41015 1.5 8 1.5C11.5899 1.5 14.5 4.41015 14.5 8C14.5 11.5899 11.5899 14.5 8 14.5C4.41015 14.5 1.5 11.5899 1.5 8Z" fill="#272A34"/>
<path d="M5.75 7.5C6.16421 7.5 6.5 7.16421 6.5 6.75C6.5 6.33579 6.16421 6 5.75 6C5.33579 6 5 6.33579 5 6.75C5 7.16421 5.33579 7.5 5.75 7.5Z" fill="#272A34"/>
<path d="M10.25 7.5C10.6642 7.5 11 7.16421 11 6.75C11 6.33579 10.6642 6 10.25 6C9.83579 6 9.5 6.33579 9.5 6.75C9.5 7.16421 9.83579 7.5 10.25 7.5Z" fill="#272A34"/>
<path fill-rule="evenodd" clip-rule="evenodd" d="M5.14898 9.06759C5.38781 8.92896 5.69379 9.01019 5.83242 9.24902C6.05277 9.62866 6.36897 9.94376 6.74937 10.1628C7.12977 10.3818 7.56103 10.4971 7.99999 10.4971C8.43894 10.4971 8.8702 10.3818 9.2506 10.1628C9.631 9.94376 9.9472 9.62865 10.1676 9.24902C10.3062 9.01019 10.6122 8.92896 10.851 9.06759C11.0898 9.20621 11.171 9.5122 11.0324 9.75102C10.7241 10.2821 10.2818 10.723 9.74959 11.0294C9.21741 11.3358 8.61408 11.4971 7.99999 11.4971C7.38589 11.4971 6.78256 11.3358 6.25038 11.0294C5.7182 10.723 5.27583 10.2821 4.96755 9.75102C4.82893 9.5122 4.91016 9.20621 5.14898 9.06759Z" fill="#272A34"/>
</svg>
