<svg width="16" height="16" viewBox="0 0 16 16" fill="none" xmlns="http://www.w3.org/2000/svg">
<path d="M1 7C0.447716 7 2.42698e-07 6.55228 2.18557e-07 6L0 1C-2.41411e-08 0.447715 0.447715 2.42698e-07 1 2.18557e-07L6 0C6.55229 -2.41409e-08 7 0.447715 7 1V6C7 6.55228 6.55229 7 6 7H1Z" fill="#858AA3"/>
<path d="M1 16C0.447716 16 2.42698e-07 15.5523 2.18557e-07 15L0 10C-2.41411e-08 9.44772 0.447715 9 1 9H6C6.55229 9 7 9.44772 7 10V15C7 15.5523 6.55229 16 6 16H1Z" fill="#858AA3"/>
<path d="M10 7C9.44772 7 9 6.55228 9 6V1C9 0.447715 9.44772 2.42698e-07 10 2.18557e-07L15 0C15.5523 -2.41409e-08 16 0.447715 16 1V6C16 6.55228 15.5523 7 15 7H10Z" fill="#858AA3"/>
<path d="M10 16C9.44772 16 9 15.5523 9 15V10C9 9.44772 9.44772 9 10 9H15C15.5523 9 16 9.44772 16 10V15C16 15.5523 15.5523 16 15 16H10Z" fill="#858AA3"/>
</svg>
