<svg width="20" height="16" viewBox="0 0 20 16" fill="none" xmlns="http://www.w3.org/2000/svg">
<path d="M3.17868e-08 1C3.17868e-08 0.447715 0.447715 0 1 0H3C3.55228 0 4 0.447715 4 1V3C4 3.55228 3.55228 4 3 4H1C0.447715 4 3.17868e-08 3.55228 3.17868e-08 3V1Z" fill="#F9F9FB"/>
<path d="M6 1C6 0.447715 6.44772 0 7 0H19C19.5523 0 20 0.447715 20 1V3C20 3.55228 19.5523 4 19 4H7C6.44772 4 6 3.55228 6 3V1Z" fill="#F9F9FB"/>
<path d="M20 9C20 9.55229 19.5523 10 19 10L7 10C6.44772 10 6 9.55228 6 9L6 7C6 6.44771 6.44772 6 7 6L19 6C19.5523 6 20 6.44772 20 7V9Z" fill="#F9F9FB"/>
<path d="M0 9C-4.82823e-08 9.55228 0.447715 10 1 10H3C3.55228 10 4 9.55228 4 9V7C4 6.44771 3.55228 6 3 6L1 6C0.447716 6 2.23128e-07 6.44771 1.74846e-07 7L0 9Z" fill="#F9F9FB"/>
<path d="M6 13C6 12.4477 6.44772 12 7 12H19C19.5523 12 20 12.4477 20 13V15C20 15.5523 19.5523 16 19 16H7C6.44772 16 6 15.5523 6 15V13Z" fill="#F9F9FB"/>
<path d="M3.17868e-08 13C3.17868e-08 12.4477 0.447715 12 1 12H3C3.55228 12 4 12.4477 4 13V15C4 15.5523 3.55228 16 3 16H1C0.447715 16 3.17868e-08 15.5523 3.17868e-08 15V13Z" fill="#F9F9FB"/>
</svg>
