<svg width="19" height="16" viewBox="0 0 19 16" fill="none" xmlns="http://www.w3.org/2000/svg">
  <path d="M4.51894 7.5C4.77426 4.14378 7.57838 1.5 11 1.5C14.5899 1.5 17.5 4.41015 17.5 8C17.5 11.5899 14.5899 14.5 11 14.5C10.5858 14.5 10.25 14.8358 10.25 15.25C10.25 15.6642 10.5858 16 11 16C15.4183 16 19 12.4183 19 8C19 3.58172 15.4183 0 11 0C6.74965 0 3.27347 3.31464 3.01537 7.5H1.25C0.969062 7.5 0.71168 7.65701 0.583127 7.90681C0.454574 8.15662 0.476409 8.45732 0.639703 8.68593L3.1397 12.1859C3.28049 12.383 3.50779 12.5 3.75 12.5C3.99222 12.5 4.21952 12.383 4.3603 12.1859L6.8603 8.68593C7.0236 8.45732 7.04543 8.15662 6.91688 7.90681C6.78833 7.65701 6.53094 7.5 6.25 7.5H4.51894Z" fill="black"/>
  <path d="M11.5 3.75C11.5 3.33579 11.1642 3 10.75 3C10.3358 3 10 3.33579 10 3.75V8.25C10 8.44891 10.079 8.63968 10.2197 8.78033L12.2197 10.7803C12.5126 11.0732 12.9874 11.0732 13.2803 10.7803C13.5732 10.4874 13.5729 10.0123 13.28 9.71939L13.2796 9.71894L13.2792 9.71853L11.5 7.93934V3.75Z" fill="black"/>
</svg>
