<svg width="102" height="14" viewBox="0 0 102 14" fill="none" xmlns="http://www.w3.org/2000/svg">
<path d="M7 0L8.5716 4.83688H13.6574L9.5429 7.82624L11.1145 12.6631L7 9.67376L2.8855 12.6631L4.4571 7.82624L0.342604 4.83688H5.4284L7 0Z" fill="#ECD78F"/>
<path d="M29 0L30.5716 4.83688H35.6574L31.5429 7.82624L33.1145 12.6631L29 9.67376L24.8855 12.6631L26.4571 7.82624L22.3426 4.83688H27.4284L29 0Z" fill="#ECD78F"/>
<path d="M51 0L52.5716 4.83688H57.6574L53.5429 7.82624L55.1145 12.6631L51 9.67376L46.8855 12.6631L48.4571 7.82624L44.3426 4.83688H49.4284L51 0Z" fill="#ECD78F"/>
<path d="M73 0L74.5716 4.83688H79.6574L75.5429 7.82624L77.1145 12.6631L73 9.67376L68.8855 12.6631L70.4571 7.82624L66.3426 4.83688H71.4284L73 0Z" fill="#ECD78F"/>
<path d="M95 0L96.5716 4.83688H101.657L97.5429 7.82624L99.1145 12.6631L95 9.67376L90.8855 12.6631L92.4571 7.82624L88.3426 4.83688H93.4284L95 0Z" fill="#DCDDE5"/>
</svg>
